<svg width="18" height="18" fill="none" xmlns="http://www.w3.org/2000/svg"><path d="M17.85 3.508a2.323 2.323 0 00-.823-1.093A2.195 2.195 0 0015.75 2H2.25a2.196 2.196 0 00-1.295.43 2.327 2.327 0 00-.82 1.125c-.09.248-.136.512-.135.778v9.334c0 .464.134.918.385 1.303.25.385.606.684 1.021.858.268.114.555.172.844.172h13.5c.275.002.548-.054.802-.163.496-.19.91-.557 1.167-1.036.185-.347.282-.738.281-1.134V4.333c0-.282-.05-.562-.15-.825zM1.5 4.333c0-.206.08-.404.22-.55a.74.74 0 01.53-.228h13.5a.74.74 0 01.53.229c.14.145.22.343.22.55v.148L10.523 9.15l-1.24.994-.282.22-.281-.228-1.255-.972L1.5 4.511v-.178zm0 9.334v-7.21l4.718 3.678-4.702 3.663a.604.604 0 01-.017-.131zm1.687.778L7.47 11.11l1.08.846a.726.726 0 00.9 0l1.072-.84 4.252 3.33H3.187zm13.314-.778a.6.6 0 01-.023.163l-4.71-3.695 4.733-3.71v7.242z" fill="#3585F5"/></svg>