<svg width="27" height="36" fill="none" xmlns="http://www.w3.org/2000/svg"><path d="M23.357 21.44h0c-1.764 3.313-4.127 6.659-6.063 9.19a97.735 97.735 0 01-3.15 3.903l-.192.223-.05.056-.011.014-.003.003h0-.001A.516.516 0 0113.5 35a.516.516 0 01-.387-.17h0l-.001-.001-.003-.004-.012-.013-.049-.056-.192-.223a97.722 97.722 0 01-3.15-3.904c-1.936-2.53-4.3-5.876-6.063-9.19h0C2.028 18.406 1 15.505 1 13.273 1 6.512 6.59 1 13.5 1S26 6.512 26 13.273c0 2.232-1.028 5.133-2.643 8.166z" fill="#3585F5" stroke="#fff" stroke-width="2"/></svg>