<svg width="20" height="20" viewBox="0 0 20 20" fill="none" xmlns="http://www.w3.org/2000/svg">
<g clip-path="url(#clip0_1832_735)">
<path d="M10 20C15.5228 20 20 15.5228 20 10C20 4.47717 15.5228 0 10 0C4.47717 0 0 4.47717 0 10C0 15.5228 4.47717 20 10 20Z" fill="#25D366"/>
<path fill-rule="evenodd" clip-rule="evenodd" d="M10.3303 15.5634H10.3278C9.33261 15.563 8.35473 15.3134 7.48619 14.8396L4.33398 15.6665L5.17757 12.5852C4.65719 11.6834 4.3834 10.6604 4.38382 9.61244C4.38515 6.33386 7.05265 3.6665 10.3302 3.6665C11.9209 3.66719 13.4139 4.28644 14.5366 5.41044C15.6592 6.53436 16.2772 8.02832 16.2765 9.61715C16.2752 12.8949 13.6088 15.5621 10.3303 15.5634ZM7.63228 13.7631L7.81273 13.8702C8.57157 14.3205 9.4414 14.5588 10.3283 14.5592H10.3303C13.0543 14.5592 15.2714 12.342 15.2725 9.61678C15.2731 8.29619 14.7595 7.05444 13.8264 6.12023C12.8932 5.18602 11.6523 4.67132 10.3322 4.67086C7.60603 4.67086 5.3889 6.88782 5.38782 9.61278C5.38744 10.5467 5.64873 11.4561 6.14344 12.243L6.26098 12.43L5.76169 14.2538L7.63228 13.7631ZM13.1225 10.8974C13.2261 10.9474 13.2961 10.9813 13.326 11.0312C13.3631 11.0931 13.3631 11.3906 13.2394 11.7377C13.1155 12.0847 12.5219 12.4015 12.2364 12.4441C11.9805 12.4824 11.6565 12.4984 11.3006 12.3853C11.0848 12.3168 10.8081 12.2254 10.4536 12.0723C9.06073 11.4709 8.1194 10.1208 7.94148 9.86569C7.92903 9.84782 7.92032 9.83532 7.91544 9.82882L7.91428 9.82723C7.83565 9.72232 7.30878 9.01936 7.30878 8.29182C7.30878 7.60744 7.64494 7.24873 7.79969 7.08361C7.81032 7.07228 7.82007 7.06186 7.82878 7.05236C7.96498 6.90361 8.12594 6.8664 8.22498 6.8664C8.32403 6.8664 8.42319 6.86732 8.50978 6.87165C8.52044 6.87219 8.53157 6.87215 8.54303 6.87207C8.62961 6.87157 8.73757 6.87094 8.84407 7.12673C8.88503 7.22515 8.94498 7.37111 9.00819 7.52502C9.13603 7.83627 9.27732 8.18015 9.30215 8.22994C9.33932 8.30432 9.36407 8.39103 9.31453 8.49023C9.30711 8.50511 9.30023 8.51915 9.29365 8.53257C9.25644 8.60848 9.22911 8.66436 9.16594 8.73807C9.14115 8.76707 9.11548 8.79832 9.08982 8.82957C9.03869 8.89182 8.98761 8.95407 8.94311 8.9984C8.86869 9.07248 8.79128 9.15286 8.87794 9.30161C8.96461 9.45036 9.26282 9.9369 9.70448 10.3309C10.1793 10.7544 10.592 10.9334 10.8012 11.0241C10.842 11.0418 10.8751 11.0562 10.8994 11.0683C11.0479 11.1427 11.1345 11.1303 11.2212 11.0312C11.3079 10.932 11.5927 10.5973 11.6917 10.4486C11.7907 10.2999 11.8898 10.3246 12.0259 10.3742C12.1622 10.4238 12.8927 10.7832 13.0412 10.8576C13.0702 10.8721 13.0974 10.8852 13.1225 10.8974Z" fill="#FDFDFD"/>
</g>
<defs>
<clipPath id="clip0_1832_735">
<rect width="20" height="20" fill="white"/>
</clipPath>
</defs>
</svg>
