<svg width="20" height="20" viewBox="0 0 20 20" fill="none" xmlns="http://www.w3.org/2000/svg">
<path d="M9.99843 19.8484C15.4438 19.8484 19.8582 15.4341 19.8582 9.98867C19.8582 4.54327 15.4438 0.128906 9.99843 0.128906C4.55304 0.128906 0.138672 4.54327 0.138672 9.98867C0.138672 15.4341 4.55304 19.8484 9.99843 19.8484Z" fill="url(#paint0_linear_2714_1214)"/>
<path d="M13.4906 7.31905C13.9136 7.31905 14.2565 6.97611 14.2565 6.55308C14.2565 6.13005 13.9136 5.78711 13.4906 5.78711C13.0675 5.78711 12.7246 6.13005 12.7246 6.55308C12.7246 6.97611 13.0675 7.31905 13.4906 7.31905Z" fill="white"/>
<path d="M10.0849 6.76953C8.31067 6.76953 6.86719 8.21297 6.86719 9.98715C6.86719 11.7613 8.31067 13.2048 10.0849 13.2048C11.859 13.2048 13.3024 11.7613 13.3024 9.98715C13.3024 8.21297 11.859 6.76953 10.0849 6.76953ZM10.0849 12.0483C8.94834 12.0483 8.02369 11.1237 8.02369 9.98714C8.02369 8.85063 8.94834 7.92605 10.0849 7.92605C11.2214 7.92605 12.1459 8.85063 12.1459 9.98714C12.1459 11.1237 11.2214 12.0483 10.0849 12.0483Z" fill="white"/>
<path d="M12.6388 16.5205H7.42251C5.25851 16.5205 3.49805 14.7601 3.49805 12.5961V7.37954C3.49805 5.21552 5.25851 3.45508 7.42251 3.45508H12.6388C14.8028 3.45508 16.5635 5.21552 16.5635 7.37954V12.5961C16.5635 14.76 14.8028 16.5205 12.6388 16.5205ZM7.42251 4.68425C5.93622 4.68425 4.72721 5.89325 4.72721 7.37954V12.5961C4.72721 14.0823 5.93622 15.2913 7.42251 15.2913H12.6388C14.1251 15.2913 15.3343 14.0823 15.3343 12.5961V7.37954C15.3343 5.89325 14.1251 4.68425 12.6388 4.68425H7.42251Z" fill="white"/>
<defs>
<linearGradient id="paint0_linear_2714_1214" x1="1.59073" y1="18.3964" x2="22.8987" y2="-2.91156" gradientUnits="userSpaceOnUse">
<stop offset="0.0011" stop-color="#FBE18A"/>
<stop offset="0.2094" stop-color="#FCBB45"/>
<stop offset="0.3765" stop-color="#F75274"/>
<stop offset="0.5238" stop-color="#D53692"/>
<stop offset="0.7394" stop-color="#8F39CE"/>
<stop offset="1" stop-color="#5B4FE9"/>
</linearGradient>
</defs>
</svg>
