<svg width="20" height="20" viewBox="0 0 20 20" fill="none" xmlns="http://www.w3.org/2000/svg">
<g clip-path="url(#clip0_2714_1198)">
<path fill-rule="evenodd" clip-rule="evenodd" d="M10 20C15.5228 20 20 15.5228 20 10C20 4.47716 15.5228 0 10 0C4.47716 0 0 4.47716 0 10C0 15.5228 4.47716 20 10 20ZM11.099 5.00276C10.788 5.00318 10.4764 5.0036 10.1638 5.00844L10.1641 5.00876C10.1559 6.08286 10.1564 7.15722 10.1569 8.23292C10.1572 8.83416 10.1575 9.43582 10.1563 10.0381C10.1549 10.24 10.1551 10.4417 10.1553 10.6434C10.1559 11.1859 10.1564 11.7276 10.1266 12.271C10.1222 12.4218 10.0466 12.5544 9.97312 12.6831C9.96726 12.6934 9.96142 12.7036 9.95562 12.7138C9.71312 13.1092 9.26716 13.3792 8.80182 13.3842C8.0999 13.4464 7.44236 12.8717 7.3433 12.1879C7.34256 12.1544 7.34136 12.1207 7.34018 12.0868C7.3334 11.8939 7.32648 11.6973 7.39986 11.5175C7.50424 11.2213 7.70456 10.9594 7.96834 10.7884C8.3296 10.5375 8.81276 10.5 9.22622 10.6337C9.22622 10.3702 9.23072 10.1067 9.23522 9.84322C9.24126 9.48976 9.2473 9.13634 9.24246 8.7827C8.33742 8.61332 7.3708 8.89958 6.68076 9.50056C6.07198 10.0165 5.67978 10.775 5.60476 11.5679C5.59634 11.7713 5.59976 11.9794 5.60976 12.1879C5.69602 13.1629 6.28824 14.0714 7.12986 14.5677C7.63768 14.8671 8.23304 15.0296 8.829 14.9955C9.80062 14.9793 10.7466 14.4583 11.2916 13.6592C11.6304 13.1792 11.8226 12.5995 11.8551 12.0169C11.8636 11.2167 11.863 10.415 11.8625 9.61232C11.8622 9.19872 11.862 8.78486 11.8629 8.3708C12.0795 8.51238 12.3008 8.65082 12.5383 8.75832C13.0836 9.01708 13.6874 9.1421 14.2884 9.16178V7.48388C13.6471 7.41232 12.988 7.20074 12.522 6.73852C12.0551 6.28756 11.8257 5.63784 11.7929 5C11.5618 5.00214 11.3305 5.00244 11.099 5.00276Z" fill="black"/>
</g>
<defs>
<clipPath id="clip0_2714_1198">
<rect width="20" height="20" fill="white"/>
</clipPath>
</defs>
</svg>
