<svg width="20" height="20" viewBox="0 0 20 20" fill="none" xmlns="http://www.w3.org/2000/svg">
<g clip-path="url(#clip0_1832_740)">
<path d="M10 0C15.5228 0 20 4.47717 20 10C20 15.5228 15.5228 20 10 20C4.47717 20 0 15.5228 0 10C0 4.47717 4.47717 0 10 0Z" fill="#7F4DA0"/>
<path d="M12.6642 8.73245C12.6156 8.33732 12.4941 8.02707 12.2785 7.75224C11.9984 7.39836 11.6405 7.18649 11.1106 7.06078C10.7653 6.97699 10.6258 6.98661 10.5009 7.1007C10.3846 7.20757 10.3619 7.42182 10.4508 7.56061C10.5133 7.66132 10.5854 7.69737 10.786 7.73674C11.0531 7.78591 11.2378 7.8497 11.4057 7.9457C11.7621 8.15153 11.9281 8.47357 11.9459 8.99499C11.9542 9.23978 11.9754 9.31503 12.0609 9.40187C12.2193 9.56057 12.5014 9.52974 12.621 9.33978C12.6649 9.2682 12.6716 9.23703 12.6762 9.07082C12.6793 8.96791 12.6749 8.8147 12.6642 8.73245Z" fill="white"/>
<path d="M14.0598 9.178C13.9894 7.96742 13.5159 6.99346 12.6685 6.30821C12.1911 5.92317 11.6139 5.65838 10.9813 5.52963C10.7496 5.48359 10.323 5.44625 10.2498 5.46759C10.1807 5.48738 10.083 5.56217 10.0395 5.62979C9.99339 5.70313 9.98301 5.86688 10.0223 5.96163C10.0857 6.11996 10.2036 6.17588 10.534 6.20479C11.0432 6.24934 11.5684 6.42825 11.9652 6.69309C12.4183 6.99467 12.7784 7.40713 13.0114 7.89179C13.2127 8.30821 13.3365 8.90834 13.3331 9.44575C13.3319 9.64013 13.362 9.74988 13.4401 9.83013C13.5581 9.95354 13.7301 9.9805 13.8819 9.89854C14.0501 9.81009 14.0894 9.65479 14.0598 9.178Z" fill="white"/>
<path d="M15.6042 13.8403C15.5806 13.7711 15.5253 13.6644 15.4858 13.6031C15.2371 13.2275 13.901 12.1819 13.2339 11.8399C12.853 11.6443 12.5708 11.5791 12.3616 11.6403C12.1366 11.7036 12.0182 11.8083 11.6412 12.2768C11.4893 12.4646 11.3333 12.6405 11.2919 12.6681C11.1893 12.7393 10.9879 12.7966 10.8458 12.7966C10.5163 12.7946 9.91826 12.5812 9.45838 12.3005C9.10118 12.0831 8.6433 11.6937 8.29197 11.3082C7.87751 10.8556 7.5953 10.4563 7.37226 10.0056C7.08414 9.42652 7.01109 9.07268 7.13147 8.81373C7.16109 8.74852 7.20059 8.67935 7.2183 8.6576C7.23609 8.63785 7.42163 8.48564 7.62684 8.3196C8.02951 7.99939 8.09464 7.92627 8.16959 7.70685C8.26434 7.42814 8.23872 7.14352 8.09264 6.85694C7.98014 6.63948 7.68609 6.1651 7.47293 5.85873C7.19072 5.45552 6.48809 4.59373 6.34793 4.47706C6.09534 4.27152 5.77168 4.23593 5.41443 4.37431C5.03751 4.52056 4.33093 5.08985 4.02895 5.48714C3.75659 5.84689 3.65202 6.10185 3.63621 6.43785C3.62241 6.7146 3.64609 6.82923 3.79214 7.18306C4.93484 9.95819 6.64005 12.174 8.98276 13.9332C10.2064 14.8523 11.4754 15.552 12.7918 16.0304C13.5596 16.3091 13.8931 16.3229 14.2858 16.0936C14.4516 15.9948 14.8621 15.5738 15.0911 15.2674C15.47 14.7574 15.6102 14.5222 15.6496 14.3344C15.6773 14.2059 15.6556 13.9826 15.6042 13.8403Z" fill="white"/>
<path d="M15.4817 9.45604C15.4564 8.77125 15.3411 8.20959 15.1007 7.58338C14.8633 6.96738 14.6231 6.56542 14.1695 6.02175C13.7406 5.51196 13.4074 5.22092 12.8791 4.89692C12.142 4.4455 11.2449 4.14677 10.2395 4.02114C9.8967 3.97724 9.81912 3.98037 9.71395 4.05055C9.51012 4.1835 9.51283 4.51513 9.71728 4.64609C9.78499 4.68775 9.84504 4.70292 10.1193 4.73879C10.5403 4.7955 10.811 4.84892 11.1322 4.93654C12.3918 5.28088 13.3604 5.98467 14.008 7.02946C14.5499 7.90029 14.7749 8.77117 14.743 9.88346C14.7318 10.2595 14.7399 10.3257 14.7974 10.416C14.9075 10.5844 15.1977 10.6177 15.3467 10.478C15.4393 10.3928 15.4568 10.3289 15.475 10.007C15.4838 9.83917 15.4857 9.59129 15.4817 9.45604Z" fill="white"/>
</g>
<defs>
<clipPath id="clip0_1832_740">
<rect width="20" height="20" fill="white"/>
</clipPath>
</defs>
</svg>
