<svg width="20" height="20" viewBox="0 0 20 20" fill="none" xmlns="http://www.w3.org/2000/svg">
<g clip-path="url(#clip0_2714_1192)">
<path d="M16.9368 16.9268C20.7688 13.0948 20.7688 6.88178 16.9368 3.04972C13.1047 -0.782336 6.89171 -0.782335 3.05965 3.04972C-0.772409 6.88178 -0.77241 13.0948 3.05965 16.9268C6.8917 20.7589 13.1047 20.7589 16.9368 16.9268Z" fill="#FF0000"/>
<path d="M16.2076 8.41498C16.2076 6.94423 15.0153 5.75195 13.5446 5.75195H6.63764C5.16689 5.75195 3.97461 6.94423 3.97461 8.41498V11.652C3.97461 13.1228 5.16689 14.3151 6.63764 14.3151H13.5446C15.0153 14.3151 16.2076 13.1228 16.2076 11.652V8.41498ZM11.8498 10.1966L9.09525 11.7074C8.97551 11.7722 8.86781 11.6855 8.86781 11.5493V8.44823C8.86781 8.31034 8.97886 8.22383 9.09867 8.29206L11.8722 9.88235C11.9947 9.95216 11.9739 10.1295 11.8498 10.1966Z" fill="white"/>
</g>
<defs>
<clipPath id="clip0_2714_1192">
<rect width="20" height="20" fill="white"/>
</clipPath>
</defs>
</svg>
