<svg width="16" height="16" fill="none" xmlns="http://www.w3.org/2000/svg"><path fill-rule="evenodd" clip-rule="evenodd" d="M8.705 2.323a3.516 3.516 0 015.962 2.502A3.523 3.523 0 0113.68 7.3l-.004.004-1.91 1.913a3.518 3.518 0 01-5.306-.38.333.333 0 01.534-.4 2.852 2.852 0 003.28.965c.382-.143.73-.367 1.02-.656l1.908-1.91A2.856 2.856 0 0011.174 2a2.85 2.85 0 00-2.004.8L8.077 3.888a.333.333 0 11-.47-.473l1.098-1.093z" fill="#0062FF"/><path fill-rule="evenodd" clip-rule="evenodd" d="M5.495 5.974a3.515 3.515 0 014.047 1.19.333.333 0 11-.534.399 2.852 2.852 0 00-4.3-.309L2.799 9.165a2.856 2.856 0 002.028 4.836 2.85 2.85 0 002.004-.8l1.087-1.088a.333.333 0 01.471.472l-1.093 1.094a3.517 3.517 0 01-5.962-2.502A3.523 3.523 0 012.321 8.7l.004-.004 1.911-1.913a3.518 3.518 0 011.259-.81z" fill="#0062FF"/></svg>