<svg width="40" height="40" fill="none" xmlns="http://www.w3.org/2000/svg"><path d="M8.462 15.055a1.165 1.165 0 011.648 0L24.945 29.89a1.165 1.165 0 010 1.648l-.824.824a1.166 1.166 0 01-1.649 0L7.638 17.528a1.166 1.166 0 010-1.649l.824-.824zm-3.296 3.297a1.166 1.166 0 011.648 0l14.834 14.834a1.166 1.166 0 010 1.648l-.824.825a1.165 1.165 0 01-1.648 0L4.34 20.824a1.165 1.165 0 010-1.648l.825-.824zm5.768-4.121a1.165 1.165 0 010-1.648l8.242-8.242a1.165 1.165 0 011.648 0l6.181 6.181a1.166 1.166 0 010 1.649l-8.241 8.241a1.166 1.166 0 01-1.648 0l-6.181-6.181zm8.654 8.653a1.166 1.166 0 010-1.648l8.241-8.241a1.166 1.166 0 011.649 0l6.18 6.18a1.165 1.165 0 010 1.65l-8.24 8.24a1.165 1.165 0 01-1.649 0l-6.181-6.18z" fill="#0062FF"/></svg>