<svg width="24" height="24" fill="none" xmlns="http://www.w3.org/2000/svg"><path fill-rule="evenodd" clip-rule="evenodd" d="M2 3.5A1.5 1.5 0 013.5 2h17A1.5 1.5 0 0122 3.5v17a1.5 1.5 0 01-1.5 1.5h-17A1.5 1.5 0 012 20.5v-17zM3.5 3a.5.5 0 00-.5.5v17a.5.5 0 00.5.5h17a.5.5 0 00.5-.5v-17a.5.5 0 00-.5-.5h-17z" fill="#182234"/><path fill-rule="evenodd" clip-rule="evenodd" d="M8.306 7.222a1.083 1.083 0 100 2.167 1.083 1.083 0 000-2.167zM6.222 8.305a2.083 2.083 0 114.167 0 2.083 2.083 0 01-4.167 0zm8.94 1.937a1.5 1.5 0 012.12 0l4.572 4.571a.5.5 0 01-.707.707l-4.571-4.57a.5.5 0 00-.707 0L4.965 21.852a.5.5 0 11-.707-.707l10.904-10.904z" fill="#182234"/></svg>