<svg width="64" height="64" fill="none" xmlns="http://www.w3.org/2000/svg"><path fill-rule="evenodd" clip-rule="evenodd" d="M5.333 9.332a4 4 0 014-4h45.333a4 4 0 014 4v45.333a4 4 0 01-4 4H9.333a4 4 0 01-4-4V9.332zm4-1.333C8.597 7.999 8 8.596 8 9.332v45.333C8 55.402 8.597 56 9.333 56h45.333c.737 0 1.334-.597 1.334-1.334V9.332c0-.736-.597-1.333-1.334-1.333H9.333z" fill="#182234"/><path fill-rule="evenodd" clip-rule="evenodd" d="M22.148 19.258a2.889 2.889 0 100 5.778 2.889 2.889 0 000-5.778zm-5.556 2.889a5.556 5.556 0 1111.112 0 5.556 5.556 0 01-11.112 0zm23.838 5.164a4 4 0 015.657 0L58.276 39.5a1.333 1.333 0 01-1.886 1.886L44.202 29.197a1.333 1.333 0 00-1.886 0L13.24 58.275a1.333 1.333 0 11-1.886-1.886L40.431 27.31z" fill="#182234"/></svg>