<svg width="34" height="34" viewBox="0 0 34 34" fill="none" xmlns="http://www.w3.org/2000/svg">
<path d="M25.3299 2.40674L21.4052 3.72507L22.4032 4.60573C20.1746 6.86373 17.4032 8.40439 14.3516 9.07506L11.9663 9.59905C11.5663 9.68705 11.3133 10.0824 11.4013 10.4824C11.4776 10.8287 11.7843 11.0647 12.1249 11.0647C12.1776 11.0647 12.2313 11.0591 12.2849 11.0474L14.6703 10.5234C18.0306 9.78505 21.0762 8.08206 23.5162 5.58706L24.5106 6.4644L25.3299 2.40674Z" fill="white"/>
<path d="M25.627 8.6377H23.919C23.4573 8.6377 23.083 9.01203 23.083 9.47369V19.4087C23.1173 19.445 23.148 19.4843 23.1783 19.524L23.1817 19.5217L26.463 16.722V9.47403C26.463 9.01203 26.0887 8.6377 25.627 8.6377Z" fill="white"/>
<path d="M20.7716 18.9622V12.7369C20.7716 12.2752 20.3973 11.9009 19.9356 11.9009H18.2276C17.7659 11.9009 17.3916 12.2752 17.3916 12.7369V18.9622H20.7716Z" fill="white"/>
<path d="M15.0792 18.7712V14.5162C15.0792 14.0545 14.7049 13.6802 14.2432 13.6802H12.5352C12.0736 13.6802 11.6992 14.0545 11.6992 14.5162V18.9825C12.7475 18.6642 13.8729 18.5898 15.0792 18.7712Z" fill="white"/>
<path d="M9.71289 32.2181L3.32824 26.3855C3.03457 26.1172 3.01391 25.6612 3.28224 25.3675L5.3709 23.0812C5.63923 22.7875 6.09523 22.7668 6.3889 23.0352L12.7732 28.8678C13.0669 29.1362 13.0876 29.5922 12.8192 29.8858L10.7306 32.1721C10.4622 32.4661 10.0066 32.4868 9.71289 32.2181Z" fill="white"/>
<path d="M30.217 16.5466C29.6174 16.0826 28.765 16.1426 28.2364 16.6863L24.0834 20.2296C24.2601 20.7519 24.3507 21.2593 24.3507 21.5589C24.3507 22.6206 23.4967 23.4866 22.4397 23.5063L16.3387 24.4143C16.3157 24.4179 16.2927 24.4193 16.2701 24.4193C16.0441 24.4193 15.8464 24.2543 15.8121 24.0239C15.7744 23.7706 15.9494 23.5349 16.2024 23.4973L22.4034 22.5793C22.9661 22.5793 23.4237 22.1213 23.4237 21.5589C23.4237 21.1933 23.2864 20.6926 23.1031 20.2549C22.8951 20.1413 22.6577 20.0746 22.4034 20.0746H16.1367C12.8307 19.2339 10.0868 20.1683 7.80176 22.5516L13.2931 27.5682L14.3534 26.8559C14.7277 26.6882 15.1281 26.5882 15.5361 26.5882H20.8097C22.5041 26.5882 24.1167 25.8603 25.2374 24.5893L30.422 18.7099C30.9914 18.0649 30.897 17.0733 30.217 16.5466Z" fill="white"/>
</svg>
