<svg xmlns="http://www.w3.org/2000/svg" width="34" height="34" viewBox="0 0 34 34" fill="none">
    <path d="M6.68297 19.2109H4.11133V21.7826H6.68297V19.2109Z" fill="white"/>
    <path d="M11.226 19.2109H8.6543V21.7826H11.226V19.2109Z" fill="white"/>
    <path d="M6.68297 23.8496H4.11133V26.4213H6.68297V23.8496Z" fill="white"/>
    <path d="M11.226 23.8496H8.6543V26.4213H11.226V23.8496Z" fill="white"/>
    <path d="M12.474 10.1816H9.90234V12.7533H12.474V10.1816Z" fill="white"/>
    <path d="M17.0189 10.1816H14.4473V12.7533H17.0189V10.1816Z" fill="white"/>
    <path d="M14.4938 14.2124H7.93787V8.7227L18.9645 4.53201V11.7695H18.9207V26.1771C19.0408 26.0885 19.1683 26.0106 19.302 25.9443C19.69 25.752 20.1894 25.536 20.7157 25.3234V11.7695L20.7124 1.99805L6.19008 7.51813V13.6287H0.261719V32.0009H17.5272V31.9806C17.5272 31.9233 17.5407 31.1708 17.598 30.2531H14.4938V14.2124ZM13.3298 30.2531H2.00952V15.3765H13.3298V30.2531Z" fill="white"/>
    <path d="M33.4471 28.1203C33.4061 27.8817 33.3096 27.656 33.1653 27.4616C33.021 27.2672 32.8329 27.1095 32.6164 27.0013C31.1717 26.2811 28.001 25.2168 28.001 25.2168H27.7328L26.8652 26.3743L27.6786 32.0019H33.7386C33.7166 30.7035 33.6193 29.4074 33.4471 28.1203Z" fill="white"/>
    <path d="M29.03 21.8682L29.4666 19.6178C29.5245 19.1918 29.4906 18.7584 29.3671 18.3467C29.2437 17.9349 29.0335 17.5543 28.7508 17.2305C28.4681 16.9067 28.1193 16.6471 27.728 16.4692C27.3366 16.2913 26.9118 16.1993 26.4819 16.1992H25.9633C25.5334 16.1993 25.1085 16.2914 24.7172 16.4692C24.3259 16.6471 23.9771 16.9067 23.6944 17.2305C23.4117 17.5543 23.2015 17.9349 23.0781 18.3467C22.9546 18.7584 22.9207 19.1918 22.9787 19.6178L23.4152 21.8682C23.542 22.5197 23.8914 23.1069 24.4036 23.529C24.9158 23.9512 25.5589 24.182 26.2226 24.182C26.8863 24.182 27.5294 23.9512 28.0416 23.529C28.5538 23.1069 28.9032 22.5197 29.03 21.8682Z" fill="white"/>
    <path d="M24.4446 25.2168C24.4446 25.2168 21.274 26.2811 19.8293 27.0013C19.6127 27.1095 19.4247 27.2672 19.2804 27.4616C19.1361 27.656 19.0395 27.8817 18.9986 28.1203C18.8264 29.4074 18.729 30.7035 18.707 32.0019H24.767L25.5804 26.3743L24.7128 25.2168H24.4446Z" fill="white"/>
</svg>