<svg width="34" height="34" viewBox="0 0 34 34" fill="none" xmlns="http://www.w3.org/2000/svg">
<path d="M27.2102 30.1943H6.41455C5.85601 30.1943 5.40332 29.7416 5.40332 29.1831V15.3882C5.40332 14.8296 5.85601 14.377 6.41455 14.377C6.97309 14.377 7.42578 14.8296 7.42578 15.3882V28.1718H26.1986V15.3882C26.1986 14.8296 26.6513 14.377 27.2098 14.377C27.7684 14.377 28.2211 14.8296 28.2211 15.3882V29.1831C28.2214 29.7419 27.7687 30.1943 27.2102 30.1943Z" fill="white"/>
<path d="M30.8 14.6858C30.6045 14.6858 30.4066 14.6292 30.2323 14.5105L16.8123 5.38957L3.39224 14.5109C2.92977 14.8257 2.30112 14.7047 1.98764 14.2432C1.67349 13.7811 1.79348 13.1525 2.25528 12.8386L16.244 3.3307C16.5875 3.09745 17.0378 3.09745 17.3809 3.3307L31.3696 12.8386C31.8314 13.1525 31.9514 13.7814 31.6376 14.2432C31.4414 14.5308 31.1236 14.6858 30.8 14.6858Z" fill="white"/>
<path d="M27.2102 7.97749C26.6517 7.97749 26.199 7.52479 26.199 6.96625V5.34424H23.6284C23.0699 5.34424 22.6172 4.89155 22.6172 4.33301C22.6172 3.77447 23.0699 3.32178 23.6284 3.32178H27.2102C27.7687 3.32178 28.2214 3.77447 28.2214 4.33301V6.96625C28.2214 7.52479 27.7687 7.97749 27.2102 7.97749Z" fill="white"/>
<path d="M21.191 26.7302C20.6325 26.7302 20.1798 26.2775 20.1798 25.719V17.6187H13.4443V25.719C13.4443 26.2775 12.9916 26.7302 12.4331 26.7302C11.8746 26.7302 11.4219 26.2775 11.4219 25.719V16.6074C11.4219 16.0489 11.8746 15.5962 12.4331 15.5962H21.191C21.7496 15.5962 22.2023 16.0489 22.2023 16.6074V25.719C22.2023 26.2775 21.7496 26.7302 21.191 26.7302Z" fill="white"/>
</svg>
