<svg width="34" height="34" viewBox="0 0 34 34" fill="none" xmlns="http://www.w3.org/2000/svg">
<path d="M27.2102 30.1943H6.41455C5.85601 30.1943 5.40332 29.7416 5.40332 29.1831V15.3882C5.40332 14.8296 5.85601 14.377 6.41455 14.377C6.97309 14.377 7.42578 14.8296 7.42578 15.3882V28.1718H26.1986V15.3882C26.1986 14.8296 26.6513 14.377 27.2098 14.377C27.7684 14.377 28.2211 14.8296 28.2211 15.3882V29.1831C28.2214 29.7419 27.7687 30.1943 27.2102 30.1943Z" fill="white"/>
<path d="M30.8 14.6863C30.6045 14.6863 30.4066 14.6297 30.2323 14.511L16.8123 5.39006L3.39224 14.5114C2.92977 14.8262 2.30112 14.7052 1.98764 14.2437C1.67349 13.7816 1.79348 13.1529 2.25528 12.8391L16.244 3.33119C16.5875 3.09794 17.0378 3.09794 17.3809 3.33119L31.3696 12.8391C31.8314 13.1529 31.9514 13.7819 31.6376 14.2437C31.4414 14.5313 31.1236 14.6863 30.8 14.6863Z" fill="white"/>
<path d="M27.2102 7.977C26.6517 7.977 26.199 7.5243 26.199 6.96577V5.34375H23.6284C23.0699 5.34375 22.6172 4.89106 22.6172 4.33252C22.6172 3.77398 23.0699 3.32129 23.6284 3.32129H27.2102C27.7687 3.32129 28.2214 3.77398 28.2214 4.33252V6.96577C28.2214 7.5243 27.7687 7.977 27.2102 7.977Z" fill="white"/>
<path d="M21.191 26.7307C20.6325 26.7307 20.1798 26.278 20.1798 25.7194V17.6191H13.4443V25.7194C13.4443 26.278 12.9916 26.7307 12.4331 26.7307C11.8746 26.7307 11.4219 26.278 11.4219 25.7194V16.6079C11.4219 16.0494 11.8746 15.5967 12.4331 15.5967H21.191C21.7496 15.5967 22.2023 16.0494 22.2023 16.6079V25.7194C22.2023 26.278 21.7496 26.7307 21.191 26.7307Z" fill="white"/>
</svg>
