<svg width="20" height="20" viewBox="0 0 20 20" fill="none" xmlns="http://www.w3.org/2000/svg">
<path d="M5.01198 18.9978C3.94038 18.9978 2.93279 18.5804 2.17519 17.8226C1.4174 17.065 1 16.0576 1 14.9858C1 13.914 1.4172 12.9066 2.17499 12.149L6.25897 8.06476C7.82336 6.50055 10.3685 6.50055 11.9325 8.06476C12.3231 8.45536 12.3231 9.08856 11.9325 9.47897C11.5423 9.86937 10.9087 9.86937 10.5185 9.47897C9.73435 8.69476 8.45796 8.69456 7.67316 9.47897L3.58938 13.563C2.80499 14.3476 2.80499 15.6238 3.58938 16.4084C3.96938 16.7884 4.47458 16.9976 5.01198 16.9976C5.54937 16.9976 6.05457 16.7884 6.43457 16.4084L8.45796 14.3854C8.84875 13.9948 9.48175 13.995 9.87215 14.3854C10.2625 14.7758 10.2627 15.409 9.87215 15.7994L7.84876 17.8226C7.09096 18.5804 6.08357 18.9978 5.01198 18.9978Z" fill="white"/>
<path d="M10.9043 13.106C9.83275 13.106 8.82516 12.6886 8.06736 11.9308C7.67676 11.5404 7.67676 10.9072 8.06736 10.5166C8.45796 10.1264 9.09116 10.1264 9.48155 10.5168C9.86155 10.8968 10.3669 11.106 10.9041 11.106C11.4413 11.106 11.9467 10.8968 12.3265 10.5168L16.4107 6.43278C16.7907 6.05278 16.9999 5.54757 16.9999 5.01017C16.9999 4.47277 16.7907 3.96757 16.4107 3.58756C15.6263 2.80316 14.3497 2.80316 13.5653 3.58756L11.5421 5.61077C11.1519 6.00118 10.5185 6.00118 10.128 5.61077C9.73735 5.22017 9.73735 4.58697 10.128 4.19657L12.1515 2.17316C13.7155 0.608948 16.2609 0.608948 17.8249 2.17316C18.5827 2.93096 19.0001 3.93837 19.0001 5.01017C19.0001 6.08198 18.5827 7.08938 17.8249 7.84719L13.7409 11.931C12.9833 12.6886 11.9759 13.106 10.9043 13.106Z" fill="white"/>
</svg>
