<svg width="40" height="40" viewBox="0 0 40 40" fill="none" xmlns="http://www.w3.org/2000/svg">
<rect width="40" height="40" rx="8" fill="#444A51"/>
<path d="M19.818 22.6892C16.5178 22.6892 13.833 20.0044 13.833 16.7042C13.833 13.404 16.5178 10.7192 19.818 10.7192C23.1179 10.7192 25.8029 13.404 25.8029 16.7042C25.8029 20.0044 23.1179 22.6892 19.818 22.6892Z" fill="white"/>
<path d="M19.8184 5C11.6475 5 5 11.6475 5 19.8184C5 27.9892 11.6475 34.6367 19.8184 34.6367C27.9892 34.6367 34.6367 27.9892 34.6367 19.8184C34.6367 11.6475 27.9892 5 19.8184 5ZM29.6383 28.0824C28.4716 26.3526 26.8535 24.9317 24.9758 24.0212C24.2313 23.6603 23.3619 23.6655 22.5894 24.0367C21.7207 24.4542 20.7881 24.6656 19.8184 24.6656C18.8486 24.6656 17.9163 24.4539 17.0473 24.0367C16.2758 23.6662 15.4061 23.6603 14.6609 24.0212C12.7833 24.9317 11.1651 26.3526 9.99807 28.0824C8.11416 25.8471 6.97578 22.9638 6.97578 19.8184C6.97578 12.7368 12.7368 6.97578 19.8184 6.97578C26.8999 6.97578 32.6609 12.7368 32.6609 19.8184C32.6609 22.9638 31.5226 25.8471 29.6383 28.0824Z" fill="white"/>
</svg>
