<svg width="27" height="19" viewBox="0 0 27 19" fill="none" xmlns="http://www.w3.org/2000/svg">
<path d="M0.44 1.368C0.808 1.304 1.2 1.248 1.616 1.2C2.048 1.136 2.472 1.088 2.888 1.056C3.32 1.024 3.736 1 4.136 0.983999C4.536 0.967999 4.904 0.959999 5.24 0.959999C6.024 0.959999 6.792 1.032 7.544 1.176C8.312 1.32 8.992 1.568 9.584 1.92C10.192 2.272 10.672 2.76 11.024 3.384C11.392 3.992 11.576 4.76 11.576 5.688C11.576 7.064 11.256 8.184 10.616 9.048C9.976 9.912 9.12 10.512 8.048 10.848L9.224 11.592L13.064 18H9.272L5.456 11.424L3.728 11.112V18H0.44V1.368ZM5.48 3.888C5.144 3.888 4.808 3.896 4.472 3.912C4.152 3.928 3.904 3.96 3.728 4.008V8.88H5.12C6.032 8.88 6.76 8.672 7.304 8.256C7.848 7.84 8.12 7.152 8.12 6.192C8.12 5.472 7.896 4.912 7.448 4.512C7 4.096 6.344 3.888 5.48 3.888ZM26.1815 5.112C26.1815 5.528 26.1255 5.944 26.0135 6.36C25.9175 6.776 25.7495 7.16 25.5095 7.512C25.2695 7.848 24.9575 8.152 24.5735 8.424C24.1895 8.68 23.7255 8.872 23.1815 9V9.144C23.6615 9.224 24.1175 9.36 24.5495 9.552C24.9815 9.744 25.3575 10.008 25.6775 10.344C25.9975 10.68 26.2455 11.088 26.4215 11.568C26.6135 12.048 26.7095 12.616 26.7095 13.272C26.7095 14.136 26.5255 14.888 26.1575 15.528C25.7895 16.152 25.2935 16.664 24.6695 17.064C24.0615 17.464 23.3655 17.76 22.5815 17.952C21.7975 18.144 20.9895 18.24 20.1575 18.24C19.8855 18.24 19.5335 18.24 19.1015 18.24C18.6855 18.24 18.2295 18.224 17.7335 18.192C17.2535 18.176 16.7575 18.144 16.2455 18.096C15.7495 18.048 15.2935 17.976 14.8775 17.88V1.32C15.1815 1.272 15.5255 1.224 15.9095 1.176C16.3095 1.128 16.7335 1.088 17.1815 1.056C17.6295 1.024 18.0855 1 18.5495 0.983999C19.0295 0.967999 19.5015 0.959999 19.9655 0.959999C20.7495 0.959999 21.5095 1.024 22.2455 1.152C22.9975 1.264 23.6615 1.472 24.2375 1.776C24.8295 2.08 25.3015 2.504 25.6535 3.048C26.0055 3.592 26.1815 4.28 26.1815 5.112ZM20.1815 15.528C20.5815 15.528 20.9655 15.48 21.3335 15.384C21.7175 15.288 22.0535 15.144 22.3415 14.952C22.6295 14.744 22.8615 14.488 23.0375 14.184C23.2135 13.88 23.3015 13.52 23.3015 13.104C23.3015 12.576 23.1975 12.16 22.9895 11.856C22.7815 11.552 22.5095 11.32 22.1735 11.16C21.8375 10.984 21.4615 10.872 21.0455 10.824C20.6295 10.776 20.2135 10.752 19.7975 10.752H18.0455V15.384C18.1255 15.416 18.2535 15.44 18.4295 15.456C18.6055 15.472 18.7895 15.488 18.9815 15.504C19.1895 15.504 19.3975 15.512 19.6055 15.528C19.8295 15.528 20.0215 15.528 20.1815 15.528ZM19.1015 8.256C19.3255 8.256 19.5815 8.248 19.8695 8.232C20.1735 8.216 20.4215 8.192 20.6135 8.16C21.2215 7.968 21.7415 7.68 22.1735 7.296C22.6215 6.912 22.8455 6.408 22.8455 5.784C22.8455 5.368 22.7655 5.024 22.6055 4.752C22.4455 4.48 22.2295 4.264 21.9575 4.104C21.7015 3.944 21.4055 3.832 21.0695 3.768C20.7335 3.704 20.3815 3.672 20.0135 3.672C19.5975 3.672 19.2135 3.68 18.8615 3.696C18.5095 3.712 18.2375 3.736 18.0455 3.768V8.256H19.1015Z" fill="white"/>
</svg>
