<svg width="22" height="18" viewBox="0 0 22 18" fill="none" xmlns="http://www.w3.org/2000/svg">
    <path d="M2.25 0.5H15.75C16.2141 0.5 16.6591 0.684507 16.9873 1.0127C17.3155 1.34088 17.5 1.78587 17.5 2.25V11.25C17.5 11.7141 17.3155 12.1591 16.9873 12.4873C16.6591 12.8155 16.2141 13 15.75 13H7.11035C6.45345 13.0001 5.81783 13.2353 5.31934 13.6631L0.913086 17.4395C0.867974 17.478 0.810293 17.4987 0.750977 17.499C0.713576 17.4989 0.67683 17.4915 0.642578 17.4766C0.600754 17.4561 0.565152 17.425 0.540039 17.3857C0.514039 17.345 0.500002 17.2974 0.5 17.249V2.25C0.5 1.78587 0.684507 1.34088 1.0127 1.0127C1.34088 0.684507 1.78587 0.5 2.25 0.5ZM17.001 2.24805C16.9997 1.91718 16.8677 1.60017 16.6338 1.36621C16.3998 1.13225 16.0828 1.00028 15.752 0.999023H2.24805C1.91718 1.00028 1.60017 1.13225 1.36621 1.36621C1.13225 1.60017 1.00028 1.91718 0.999023 2.24805V16.708L1.82422 16L4.99414 13.2832C5.58378 12.7787 6.33433 12.5014 7.11035 12.501H15.752C16.0828 12.4997 16.3998 12.3677 16.6338 12.1338C16.8677 11.8998 16.9997 11.5828 17.001 11.252V2.24805Z" fill="white" stroke="white"/>
    <path d="M12.7783 4.91113C12.8123 4.90905 12.8468 4.91427 12.8789 4.92578C12.9111 4.93742 12.9409 4.95603 12.9658 4.97949C12.9908 5.00295 13.0108 5.03107 13.0244 5.0625C13.038 5.09394 13.0449 5.12787 13.0449 5.16211C13.0449 5.19634 13.038 5.23029 13.0244 5.26172C13.0108 5.29313 12.9908 5.32128 12.9658 5.34473C12.9409 5.36818 12.9111 5.3868 12.8789 5.39844C12.8468 5.40995 12.8123 5.41419 12.7783 5.41211L12.7637 5.41113H5.23438L5.21973 5.41211C5.1857 5.41419 5.15122 5.40996 5.11914 5.39844C5.08693 5.3868 5.05717 5.36819 5.03223 5.34473C5.0073 5.32127 4.98722 5.29313 4.97363 5.26172C4.96005 5.2303 4.95313 5.19634 4.95312 5.16211C4.95312 5.12787 4.96005 5.09393 4.97363 5.0625C4.98721 5.03109 5.00731 5.00295 5.03223 4.97949C5.05717 4.95603 5.08693 4.93742 5.11914 4.92578C5.15123 4.91425 5.18569 4.90905 5.21973 4.91113L5.23438 4.91211H12.7637L12.7783 4.91113Z" fill="white" stroke="white"/>
    <path d="M12.7783 7.91211C12.8123 7.91003 12.8468 7.91524 12.8789 7.92676C12.9111 7.9384 12.9409 7.957 12.9658 7.98047C12.9908 8.00393 13.0108 8.03205 13.0244 8.06348C13.038 8.09492 13.0449 8.12885 13.0449 8.16309C13.0449 8.19731 13.038 8.23127 13.0244 8.2627C13.0108 8.2941 12.9908 8.32225 12.9658 8.3457C12.9409 8.36916 12.9111 8.38778 12.8789 8.39941C12.8468 8.41092 12.8123 8.41517 12.7783 8.41309L12.7637 8.41211H5.23438L5.21973 8.41309C5.1857 8.41517 5.15122 8.41094 5.11914 8.39941C5.08693 8.38777 5.05717 8.36917 5.03223 8.3457C5.0073 8.32225 4.98722 8.29411 4.97363 8.2627C4.96005 8.23127 4.95313 8.19732 4.95312 8.16309C4.95312 8.12885 4.96005 8.0949 4.97363 8.06348C4.98721 8.03206 5.00731 8.00392 5.03223 7.98047C5.05717 7.95701 5.08693 7.9384 5.11914 7.92676C5.15123 7.91523 5.18569 7.91002 5.21973 7.91211L5.23438 7.91309H12.7637L12.7783 7.91211Z" fill="white" stroke="white"/>
    <path d="M10.5 11L22 2.31299V18H12L10.5 11Z" fill="#04254E"/>
    <path d="M11.3252 12.5C11.3592 12.4979 11.3937 12.5031 11.4258 12.5146C11.458 12.5263 11.4877 12.5449 11.5127 12.5684C11.5376 12.5918 11.5577 12.6199 11.5713 12.6514C11.5849 12.6828 11.5918 12.7167 11.5918 12.751C11.5918 12.7852 11.5849 12.8192 11.5713 12.8506C11.5577 12.882 11.5376 12.9101 11.5127 12.9336C11.4878 12.957 11.458 12.9757 11.4258 12.9873C11.3937 12.9988 11.3592 13.0031 11.3252 13.001L11.3105 13H7.78125L7.7666 13.001C7.73258 13.0031 7.69809 12.9988 7.66602 12.9873C7.63381 12.9757 7.60405 12.9571 7.5791 12.9336C7.55417 12.9101 7.53409 12.882 7.52051 12.8506C7.50693 12.8192 7.50001 12.7852 7.5 12.751C7.5 12.7167 7.50693 12.6828 7.52051 12.6514C7.53409 12.62 7.55418 12.5918 7.5791 12.5684C7.60405 12.5449 7.63381 12.5263 7.66602 12.5146C7.6981 12.5031 7.73257 12.4979 7.7666 12.5L7.78125 12.501H11.3105L11.3252 12.5Z" fill="white" stroke="white"/>
    <path d="M17.5 6.3252C17.5021 6.35921 17.4969 6.39371 17.4854 6.42578C17.4737 6.45799 17.4551 6.48775 17.4316 6.5127C17.4082 6.53763 17.3801 6.5577 17.3486 6.57129C17.3172 6.58488 17.2833 6.5918 17.249 6.5918C17.2148 6.59179 17.1808 6.58487 17.1494 6.57129C17.118 6.5577 17.0899 6.53762 17.0664 6.5127C17.043 6.48775 17.0243 6.45798 17.0127 6.42578C17.0012 6.39372 16.9969 6.3592 16.999 6.3252L17 6.31055V2.78125L16.999 2.7666C16.9969 2.73258 17.0012 2.69809 17.0127 2.66602C17.0243 2.63381 17.0429 2.60405 17.0664 2.5791C17.0899 2.55417 17.118 2.53409 17.1494 2.52051C17.1808 2.50693 17.2148 2.50001 17.249 2.5C17.2833 2.5 17.3172 2.50693 17.3486 2.52051C17.38 2.53409 17.4082 2.55418 17.4316 2.5791C17.4551 2.60405 17.4737 2.63381 17.4854 2.66602C17.4969 2.6981 17.5021 2.73257 17.5 2.7666L17.499 2.78125V6.31055L17.5 6.3252Z" fill="white" stroke="white"/>
    <path d="M19.7305 9.75C19.6927 9.74973 19.6562 9.76294 19.6279 9.78711C19.5995 9.81147 19.5814 9.84549 19.5762 9.88184C19.5112 10.3693 19.391 10.8479 19.2188 11.3086V11.3105C19.2085 11.3377 19.2059 11.3672 19.2119 11.3955C19.218 11.4238 19.2323 11.4498 19.2529 11.4707L19.8242 12.042C20.0635 12.2808 20.1136 12.6496 19.9463 12.9434C19.2352 14.1914 18.2003 15.2251 16.9502 15.9346C16.657 16.101 16.2884 16.0506 16.0498 15.8125L15.4785 15.2422C15.4576 15.2215 15.4306 15.2074 15.4014 15.2012C15.3721 15.1949 15.3414 15.1966 15.3135 15.207L15.3115 15.208C14.8504 15.3797 14.3716 15.4997 13.8838 15.5645H13.8828C13.8449 15.5699 13.8105 15.5885 13.7861 15.6172C13.7617 15.6459 13.7491 15.6826 13.75 15.7197V17.0957C13.7499 17.1166 13.7543 17.1379 13.7627 17.1572C13.7712 17.1766 13.784 17.1945 13.7998 17.209C13.8157 17.2235 13.8349 17.2352 13.8555 17.2422C13.876 17.2491 13.8983 17.251 13.9199 17.249C15.1909 17.109 16.4116 16.6748 17.4844 15.9805L17.4902 15.9766L17.8584 15.7285C18.6996 15.1278 19.4185 14.3705 19.9746 13.4971L19.9775 13.4922L20.2285 13.0801C20.7811 12.1079 21.1288 11.0315 21.249 9.91699C21.2509 9.89602 21.2489 9.87451 21.2422 9.85449C21.2354 9.83462 21.2243 9.81646 21.21 9.80078C21.1956 9.78507 21.1779 9.77239 21.1582 9.76367L21.0947 9.75H19.7305Z" fill="white" stroke="white" stroke-width="1.5" stroke-linecap="round" stroke-linejoin="round"/>
</svg>

