<svg xmlns="http://www.w3.org/2000/svg" width="19" height="18" viewBox="0 0 19 18" fill="none">
    <path d="M15.75 0H2.25C1.65326 0 1.08097 0.237053 0.65901 0.65901C0.237053 1.08097 0 1.65326 0 2.25L0 17.2491C6.61554e-06 17.3927 0.0410404 17.5333 0.118271 17.6544C0.195502 17.7755 0.305715 17.8719 0.435937 17.9325C0.535036 17.9769 0.642364 17.9999 0.750938 18C0.929359 17.9997 1.10185 17.9359 1.2375 17.82L5.64469 14.0428C6.05259 13.6926 6.5724 13.5001 7.11 13.5H15.75C16.3467 13.5 16.919 13.2629 17.341 12.841C17.7629 12.419 18 11.8467 18 11.25V2.25C18 1.65326 17.7629 1.08097 17.341 0.65901C16.919 0.237053 16.3467 0 15.75 0ZM16.5009 11.25C16.5002 11.4489 16.4208 11.6395 16.2802 11.7802C16.1395 11.9208 15.9489 12.0002 15.75 12.0009H7.11C6.21468 12.0014 5.34895 12.3216 4.66875 12.9038L1.49906 15.6206V2.25C1.4998 2.05107 1.57916 1.86049 1.71983 1.71983C1.86049 1.57916 2.05107 1.4998 2.25 1.49906H15.75C15.9489 1.4998 16.1395 1.57916 16.2802 1.71983C16.4208 1.86049 16.5002 2.05107 16.5009 2.25V11.25Z" fill="white"/>
    <path d="M12.7481 4.41156H5.25C5.14771 4.40529 5.04521 4.42003 4.94883 4.45486C4.85245 4.48969 4.76422 4.54389 4.68957 4.6141C4.61492 4.68432 4.55543 4.76907 4.51476 4.86314C4.4741 4.95721 4.45312 5.05861 4.45312 5.16109C4.45312 5.26358 4.4741 5.36498 4.51476 5.45905C4.55543 5.55312 4.61492 5.63787 4.68957 5.70809C4.76422 5.7783 4.85245 5.83249 4.94883 5.86733C5.04521 5.90216 5.14771 5.91689 5.25 5.91063H12.7481C12.8504 5.91689 12.9529 5.90216 13.0493 5.86733C13.1457 5.83249 13.2339 5.7783 13.3086 5.70809C13.3832 5.63787 13.4427 5.55312 13.4834 5.45905C13.524 5.36498 13.545 5.26358 13.545 5.16109C13.545 5.05861 13.524 4.95721 13.4834 4.86314C13.4427 4.76907 13.3832 4.68432 13.3086 4.6141C13.2339 4.54389 13.1457 4.48969 13.0493 4.45486C12.9529 4.42003 12.8504 4.40529 12.7481 4.41156Z" fill="white"/>
    <path d="M12.7481 7.41352H5.25C5.14771 7.40725 5.04521 7.42198 4.94883 7.45681C4.85245 7.49165 4.76422 7.54584 4.68957 7.61605C4.61492 7.68627 4.55543 7.77102 4.51476 7.86509C4.4741 7.95916 4.45312 8.06056 4.45312 8.16305C4.45312 8.26553 4.4741 8.36693 4.51476 8.461C4.55543 8.55507 4.61492 8.63982 4.68957 8.71004C4.76422 8.78025 4.85245 8.83445 4.94883 8.86928C5.04521 8.90411 5.14771 8.91885 5.25 8.91258H12.7481C12.8504 8.91885 12.9529 8.90411 13.0493 8.86928C13.1457 8.83445 13.2339 8.78025 13.3086 8.71004C13.3832 8.63982 13.4427 8.55507 13.4834 8.461C13.524 8.36693 13.545 8.26553 13.545 8.16305C13.545 8.06056 13.524 7.95916 13.4834 7.86509C13.4427 7.77102 13.3832 7.68627 13.3086 7.61605C13.2339 7.54584 13.1457 7.49165 13.0493 7.45681C12.9529 7.42198 12.8504 7.40725 12.7481 7.41352Z" fill="white"/>
    <circle cx="14" cy="12" r="5" fill="white"/>
    <path d="M16.9998 13.4922V14.3954C17.0002 14.4792 16.9829 14.5622 16.9493 14.6391C16.9156 14.7159 16.8663 14.7849 16.8044 14.8416C16.7424 14.8982 16.6693 14.9414 16.5898 14.9683C16.5102 14.9951 16.4258 15.0051 16.3422 14.9976C15.4138 14.8969 14.5221 14.5803 13.7387 14.0732C13.0098 13.611 12.3918 12.9942 11.9286 12.2668C11.4188 11.4813 11.1015 10.587 11.0024 9.65638C10.9949 9.57313 11.0048 9.48921 11.0316 9.40999C11.0583 9.33076 11.1013 9.25796 11.1577 9.19622C11.2142 9.13448 11.283 9.08515 11.3596 9.05137C11.4362 9.01759 11.519 9.00011 11.6028 9.00003H12.5078C12.6542 8.99859 12.7962 9.05033 12.9072 9.14561C13.0182 9.24089 13.0907 9.3732 13.1112 9.51789C13.1494 9.80695 13.2202 10.0908 13.3224 10.3639C13.3629 10.4717 13.3717 10.5888 13.3477 10.7014C13.3236 10.814 13.2677 10.9173 13.1866 10.9992L12.8035 11.3816C13.2329 12.1353 13.8583 12.7595 14.6135 13.1881L14.9967 12.8057C15.0787 12.7247 15.1822 12.669 15.2951 12.6449C15.4079 12.6209 15.5252 12.6297 15.6332 12.6702C15.9069 12.7721 16.1913 12.8428 16.4809 12.881C16.6275 12.9016 16.7613 12.9753 16.857 13.088C16.9527 13.2006 17.0035 13.3445 16.9998 13.4922Z" fill="#04254E"/>
</svg>