<svg width="20" height="20" viewBox="0 0 20 20" fill="none" xmlns="http://www.w3.org/2000/svg">
<path d="M18.8509 4.50791C18.6895 4.06528 18.4021 3.68401 18.0269 3.4147C17.6517 3.14538 17.2063 3.00075 16.75 3L3.25003 3C2.78593 3.00128 2.33357 3.15136 1.95494 3.42966C1.57631 3.70797 1.28992 4.10089 1.13503 4.55458C1.04439 4.80339 0.99863 5.06736 1.00003 5.33333V14.6666C1.00038 15.1311 1.13439 15.5849 1.38492 15.9699C1.63544 16.355 1.99107 16.6537 2.40628 16.8279C2.67393 16.942 2.96062 17.0005 3.25003 17H16.75C17.025 17.0016 17.2976 16.9461 17.5516 16.8366C18.0477 16.6477 18.4619 16.2803 18.7187 15.8012C18.904 15.454 19.0008 15.0635 19 14.6666V5.33333C18.9997 5.05102 18.9492 4.77119 18.8509 4.50791ZM2.49909 5.33333C2.49983 5.12703 2.57919 4.9294 2.71985 4.78352C2.86052 4.63764 3.05109 4.55535 3.25003 4.55458H16.75C16.9489 4.55535 17.1395 4.63764 17.2802 4.78352C17.4208 4.9294 17.5002 5.12703 17.5009 5.33333V5.48208L11.5216 10.1487L10.2813 11.1433L10 11.3621L9.71876 11.1346L8.46439 10.1633L2.49909 5.51124V5.33333ZM2.49909 14.6666V7.45666L7.21846 11.1346L2.51597 14.7979C2.50556 14.7549 2.49989 14.7109 2.49909 14.6666ZM4.18659 15.4454L8.47002 12.1087L9.55001 12.9546C9.67934 13.0567 9.83743 13.1121 10 13.1121C10.1626 13.1121 10.3207 13.0567 10.45 12.9546L11.5216 12.1146L15.7741 15.4454H4.18659ZM17.5009 14.6666C17.5009 14.7219 17.4934 14.7769 17.4784 14.83L12.7675 11.1346L17.5009 7.42457V14.6666Z" fill="white"/>
</svg>
