<svg width="20" height="20" viewBox="0 0 20 20" fill="none" xmlns="http://www.w3.org/2000/svg">
<path d="M9.26581 17.4985C8.96265 17.4985 8.66262 17.4372 8.38374 17.3183C8.10486 17.1994 7.85289 17.0253 7.64295 16.8066H5.8457C6.14616 17.4612 6.62811 18.0157 7.23434 18.4045C7.84057 18.7932 8.54563 18.9999 9.26581 18.9999C9.98599 18.9999 10.691 18.7932 11.2973 18.4045C11.9035 18.0157 12.3855 17.4612 12.6859 16.8066H10.8887C10.6787 17.0253 10.4268 17.1994 10.1479 17.3183C9.869 17.4372 9.56898 17.4985 9.26581 17.4985Z" fill="white"/>
<path d="M16.0277 12.5316V10.1747C16.0256 8.51234 15.4118 6.90891 14.3033 5.67017C13.1948 4.43143 11.6691 3.64406 10.0172 3.4582V1.75096C10.0172 1.55179 9.93804 1.36078 9.79721 1.21995C9.65637 1.07912 9.46536 1 9.2662 1C9.06703 1 8.87602 1.07912 8.73519 1.21995C8.59435 1.36078 8.51524 1.55179 8.51524 1.75096V3.4582C6.86307 3.64401 5.33704 4.43128 4.22804 5.66995C3.11904 6.90863 2.50463 8.51208 2.50192 10.1747V12.5316C2.48505 13.7073 2.31348 14.5567 1 14.5567V16.0614H17.5324V14.5511C16.2189 14.5511 16.0445 13.7016 16.0277 12.5316ZM14.5257 11.5472V14.5511H4.00666V10.1747C4.00666 8.77975 4.56079 7.44196 5.54714 6.45561C6.5335 5.46925 7.87128 4.91512 9.2662 4.91512C10.6611 4.91512 11.9989 5.46925 12.9853 6.45561C13.9716 7.44196 14.5257 8.77975 14.5257 10.1747V11.5472Z" fill="white"/>
</svg>
