<svg width="34" height="34" viewBox="0 0 34 34" fill="none" xmlns="http://www.w3.org/2000/svg">
<path d="M32.1808 13.7562L24.8725 7.27025C24.6205 7.04625 24.2399 7.04625 23.9879 7.27025L21.7092 9.29223L17.8476 5.86526C17.5953 5.64127 17.2153 5.64127 16.9626 5.86526L13.1013 9.29223L10.823 7.27059C10.5703 7.04659 10.1907 7.04659 9.93801 7.27059L2.6294 13.7562C2.42241 13.9402 2.35041 14.2329 2.44874 14.4915C2.54707 14.7502 2.79507 14.9215 3.07207 14.9215H4.28139V24.1441C4.28139 24.5121 4.58005 24.8108 4.94805 24.8108H9.99634V26.6884C9.99634 27.0564 10.295 27.3551 10.663 27.3551H24.1476C24.5155 27.3551 24.8142 27.0564 24.8142 26.6884V24.8108H29.8628C30.2308 24.8108 30.5295 24.5121 30.5295 24.1441V14.9215H31.7385C32.0155 14.9215 32.2635 14.7502 32.3618 14.4915C32.4601 14.2329 32.3882 13.9399 32.1808 13.7562ZM5.61471 23.4774V14.2549C5.61471 13.8869 5.31605 13.5882 4.94805 13.5882H4.82772L10.3807 8.66024L12.097 10.1836L7.89169 13.9152C7.68469 14.0992 7.6127 14.3919 7.71103 14.6505C7.80936 14.9092 8.05736 15.0805 8.33436 15.0805H9.99634V23.4771L5.61471 23.4774ZM23.4809 26.0214H11.3297V14.4139C11.3297 14.0459 11.031 13.7472 10.663 13.7472H10.09L17.4053 7.25525L24.7205 13.7472H24.1472C23.7792 13.7472 23.4806 14.0459 23.4806 14.4139L23.4809 26.0214ZM29.8625 13.5882C29.4945 13.5882 29.1958 13.8869 29.1958 14.2549V23.4774H24.8142V15.0805H26.4762C26.7532 15.0805 27.0012 14.9092 27.0995 14.6505C27.1979 14.3919 27.1259 14.0992 26.9185 13.9152L22.7136 10.1836L24.4302 8.66024L29.9828 13.5882H29.8625Z" fill="white" stroke="white"/>
</svg>
