<svg width="34" height="34" viewBox="0 0 34 34" fill="none" xmlns="http://www.w3.org/2000/svg">
<path d="M29.0419 11.8407C26.9009 7.20076 22.2162 4.20312 17.1079 4.20312C10.8942 4.20312 5.67793 8.54074 4.31894 14.3457L3.95327 13.7447C3.66594 13.2727 3.05094 13.1227 2.57894 13.4104C2.10728 13.6973 1.95728 14.3127 2.24461 14.7847L4.11594 17.8603C4.11961 17.8663 4.12494 17.8706 4.12861 17.8766C4.15961 17.925 4.19527 17.9696 4.23394 18.012C4.24294 18.022 4.25027 18.0333 4.25961 18.043C4.30894 18.0926 4.36327 18.137 4.42227 18.1756C4.4376 18.1856 4.4546 18.1926 4.4706 18.202C4.5156 18.228 4.56127 18.252 4.61027 18.271C4.6336 18.28 4.6576 18.286 4.6816 18.2933C4.7256 18.3066 4.7696 18.318 4.81594 18.3253C4.82794 18.3273 4.83927 18.3323 4.85127 18.3336C4.89127 18.338 4.93094 18.3403 4.9706 18.3403C5.03727 18.3403 5.10327 18.3333 5.16794 18.3203C5.20727 18.3123 5.24394 18.2983 5.2816 18.286C5.30594 18.278 5.33094 18.273 5.3546 18.2633C5.39727 18.2456 5.4366 18.222 5.47593 18.1986C5.49227 18.189 5.51027 18.182 5.52627 18.1713C5.58093 18.1346 5.63193 18.093 5.6786 18.0463L8.23592 15.489C8.62659 15.0987 8.62659 14.4653 8.23592 14.075C7.84559 13.6843 7.21226 13.6843 6.82193 14.075L6.3176 14.5793C7.54893 9.76939 11.9199 6.20277 17.1082 6.20277C21.4392 6.20277 25.4109 8.74441 27.2262 12.6784C27.4572 13.1797 28.0519 13.3984 28.5529 13.1674C29.0545 12.936 29.2732 12.342 29.0419 11.8407Z" fill="white" stroke="white" stroke-width="0.5"/>
<path d="M31.9529 19.8963L30.0815 16.8207C30.0782 16.815 30.0732 16.8107 30.0695 16.805C30.0379 16.7553 30.0012 16.7093 29.9615 16.666C29.9535 16.657 29.9469 16.6467 29.9385 16.638C29.8892 16.588 29.8345 16.5437 29.7755 16.505C29.7605 16.495 29.7439 16.4883 29.7282 16.4793C29.6832 16.453 29.6369 16.429 29.5879 16.41C29.5645 16.401 29.5405 16.3953 29.5165 16.388C29.4725 16.3747 29.4285 16.3633 29.3822 16.356C29.3702 16.354 29.3589 16.349 29.3465 16.3477C29.3292 16.3457 29.3122 16.3487 29.2949 16.3473C29.2722 16.3457 29.2505 16.3403 29.2272 16.3403C29.2069 16.3403 29.1882 16.345 29.1682 16.3463C29.1372 16.348 29.1069 16.351 29.0762 16.3557C29.0335 16.362 28.9929 16.372 28.9522 16.3837C28.9255 16.3913 28.8992 16.3983 28.8735 16.408C28.8285 16.425 28.7862 16.4467 28.7445 16.4697C28.7249 16.4807 28.7045 16.4893 28.6855 16.5017C28.6255 16.5403 28.5692 16.584 28.5189 16.6343L25.9616 19.1916C25.5709 19.582 25.5709 20.2153 25.9616 20.6056C26.3522 20.9963 26.9849 20.9963 27.3756 20.6056L27.8799 20.1013C26.6486 24.9112 22.2776 28.4779 17.0893 28.4779C12.6029 28.4779 8.57462 25.8076 6.82662 21.6753C6.61129 21.1666 6.02496 20.9276 5.51596 21.1439C5.00729 21.3593 4.76929 21.9456 4.98463 22.4546C7.04629 27.3285 11.7976 30.4778 17.0893 30.4778C23.3029 30.4778 28.5192 26.1402 29.8782 20.335L30.2439 20.9359C30.4319 21.2453 30.7615 21.4159 31.0989 21.4159C31.2759 21.4159 31.4552 21.3689 31.6179 21.2703C32.0902 20.9836 32.2399 20.3683 31.9529 19.8963Z" fill="white" stroke="white" stroke-width="0.5"/>
<path d="M18.1012 16.6417L16.7582 16.1497C16.7376 16.1424 16.7166 16.1354 16.6956 16.1291C16.1629 15.9727 15.7466 15.5871 15.5529 15.0711C15.3892 14.6344 15.4052 14.1601 15.5982 13.7358C15.7912 13.3114 16.1379 12.9874 16.5746 12.8238C17.0109 12.6598 17.4852 12.6758 17.9099 12.8691C18.3342 13.0621 18.6586 13.4088 18.8222 13.8454C19.0159 14.3624 19.5922 14.6234 20.1096 14.4304C20.6266 14.2364 20.8886 13.6601 20.6946 13.1428C20.2469 11.9491 19.2509 11.1191 18.0996 10.8281V10.1811C18.0996 9.62881 17.6519 9.18115 17.0996 9.18115C16.5472 9.18115 16.0996 9.62881 16.0996 10.1811V10.8785C16.0236 10.9015 15.9476 10.9228 15.8722 10.9508C14.9352 11.3021 14.1916 11.9971 13.7773 12.9081C13.3633 13.8188 13.3286 14.8364 13.6799 15.7734C14.0926 16.8731 14.9726 17.6967 16.0982 18.038L17.4412 18.53C17.4622 18.5377 17.4829 18.5447 17.5039 18.551C18.0366 18.7074 18.4529 19.0927 18.6466 19.6094C18.8102 20.046 18.7939 20.52 18.6012 20.9447C18.4082 21.369 18.0616 21.693 17.6246 21.8567C17.1876 22.02 16.7136 22.0033 16.2892 21.8113C15.8649 21.6183 15.5409 21.2717 15.3772 20.8347C15.1832 20.3174 14.6066 20.054 14.0899 20.2497C13.5729 20.4434 13.3109 21.02 13.5046 21.537C13.8559 22.474 14.5509 23.2177 15.4619 23.6316C15.6696 23.726 15.8832 23.796 16.0999 23.851V24.499C16.0999 25.0513 16.5476 25.499 17.0999 25.499C17.6522 25.499 18.0999 25.0513 18.0999 24.499V23.803C18.1759 23.7796 18.2519 23.7573 18.3272 23.7293C19.2642 23.378 20.0082 22.683 20.4222 21.772C20.8362 20.8614 20.8709 19.8437 20.5196 18.907C20.1072 17.8071 19.2269 16.9834 18.1012 16.6417Z" fill="white" stroke="white" stroke-width="0.5"/>
</svg>
