<svg width="34" height="34" viewBox="0 0 34 34" fill="none" xmlns="http://www.w3.org/2000/svg">
<path d="M29.0419 11.8407C26.9009 7.20076 22.2162 4.20312 17.1079 4.20312C10.8942 4.20312 5.67793 8.54074 4.31894 14.3457L3.95327 13.7447C3.66594 13.2727 3.05094 13.1227 2.57894 13.4104C2.10728 13.6973 1.95728 14.3127 2.24461 14.7847L4.11594 17.8603C4.11961 17.8663 4.12494 17.8706 4.12861 17.8766C4.15961 17.925 4.19527 17.9696 4.23394 18.012C4.24294 18.022 4.25027 18.0333 4.25961 18.043C4.30894 18.0926 4.36327 18.137 4.42227 18.1756C4.4376 18.1856 4.4546 18.1926 4.4706 18.202C4.5156 18.228 4.56127 18.252 4.61027 18.271C4.6336 18.28 4.6576 18.286 4.6816 18.2933C4.7256 18.3066 4.7696 18.318 4.81594 18.3253C4.82794 18.3273 4.83927 18.3323 4.85127 18.3336C4.89127 18.338 4.93094 18.3403 4.9706 18.3403C5.03727 18.3403 5.10327 18.3333 5.16794 18.3203C5.20727 18.3123 5.24394 18.2983 5.2816 18.286C5.30594 18.278 5.33094 18.273 5.3546 18.2633C5.39727 18.2456 5.4366 18.222 5.47593 18.1986C5.49227 18.189 5.51027 18.182 5.52627 18.1713C5.58093 18.1346 5.63193 18.093 5.6786 18.0463L8.23592 15.489C8.62659 15.0987 8.62659 14.4653 8.23592 14.075C7.84559 13.6843 7.21226 13.6843 6.82193 14.075L6.3176 14.5793C7.54893 9.76939 11.9199 6.20277 17.1082 6.20277C21.4392 6.20277 25.4109 8.74441 27.2262 12.6784C27.4572 13.1797 28.0519 13.3984 28.5529 13.1674C29.0545 12.936 29.2732 12.342 29.0419 11.8407Z" fill="white" stroke="white" stroke-width="0.5"/>
<path d="M31.9529 19.8968L30.0815 16.8211C30.0782 16.8155 30.0732 16.8111 30.0695 16.8055C30.0379 16.7558 30.0012 16.7098 29.9615 16.6665C29.9535 16.6575 29.9469 16.6472 29.9385 16.6385C29.8892 16.5885 29.8345 16.5442 29.7755 16.5055C29.7605 16.4955 29.7439 16.4888 29.7282 16.4798C29.6832 16.4535 29.6369 16.4295 29.5879 16.4105C29.5645 16.4015 29.5405 16.3958 29.5165 16.3885C29.4725 16.3752 29.4285 16.3638 29.3822 16.3565C29.3702 16.3545 29.3589 16.3495 29.3465 16.3482C29.3292 16.3462 29.3122 16.3492 29.2949 16.3478C29.2722 16.3462 29.2505 16.3408 29.2272 16.3408C29.2069 16.3408 29.1882 16.3455 29.1682 16.3468C29.1372 16.3485 29.1069 16.3515 29.0762 16.3562C29.0335 16.3625 28.9929 16.3725 28.9522 16.3842C28.9255 16.3918 28.8992 16.3988 28.8735 16.4085C28.8285 16.4255 28.7862 16.4472 28.7445 16.4702C28.7249 16.4812 28.7045 16.4898 28.6855 16.5022C28.6255 16.5408 28.5692 16.5845 28.5189 16.6348L25.9616 19.1921C25.5709 19.5824 25.5709 20.2158 25.9616 20.6061C26.3522 20.9968 26.9849 20.9968 27.3756 20.6061L27.8799 20.1018C26.6486 24.9117 22.2776 28.4783 17.0893 28.4783C12.6029 28.4783 8.57462 25.808 6.82662 21.6758C6.61129 21.1671 6.02496 20.9281 5.51596 21.1444C5.00729 21.3598 4.76929 21.9461 4.98463 22.4551C7.04629 27.329 11.7976 30.4783 17.0893 30.4783C23.3029 30.4783 28.5192 26.1407 29.8782 20.3354L30.2439 20.9364C30.4319 21.2458 30.7615 21.4164 31.0989 21.4164C31.2759 21.4164 31.4552 21.3694 31.6179 21.2708C32.0902 20.9841 32.2399 20.3688 31.9529 19.8968Z" fill="white" stroke="white" stroke-width="0.5"/>
<path d="M18.1012 16.6412L16.7582 16.1492C16.7376 16.1419 16.7166 16.1349 16.6956 16.1286C16.1629 15.9723 15.7466 15.5866 15.5529 15.0706C15.3892 14.6339 15.4052 14.1596 15.5982 13.7353C15.7912 13.3109 16.1379 12.987 16.5746 12.8233C17.0109 12.6593 17.4852 12.6753 17.9099 12.8686C18.3342 13.0616 18.6586 13.4083 18.8222 13.8449C19.0159 14.3619 19.5922 14.6229 20.1096 14.4299C20.6266 14.2359 20.8886 13.6596 20.6946 13.1423C20.2469 11.9486 19.2509 11.1186 18.0996 10.8276V10.1807C18.0996 9.62833 17.6519 9.18066 17.0996 9.18066C16.5472 9.18066 16.0996 9.62833 16.0996 10.1807V10.878C16.0236 10.901 15.9476 10.9223 15.8722 10.9503C14.9352 11.3016 14.1916 11.9966 13.7773 12.9076C13.3633 13.8183 13.3286 14.8359 13.6799 15.7729C14.0926 16.8726 14.9726 17.6962 16.0982 18.0376L17.4412 18.5296C17.4622 18.5372 17.4829 18.5442 17.5039 18.5506C18.0366 18.7069 18.4529 19.0922 18.6466 19.6089C18.8102 20.0455 18.7939 20.5195 18.6012 20.9442C18.4082 21.3685 18.0616 21.6925 17.6246 21.8562C17.1876 22.0195 16.7136 22.0028 16.2892 21.8108C15.8649 21.6179 15.5409 21.2712 15.3772 20.8342C15.1832 20.3169 14.6066 20.0535 14.0899 20.2492C13.5729 20.4429 13.3109 21.0195 13.5046 21.5365C13.8559 22.4735 14.5509 23.2172 15.4619 23.6312C15.6696 23.7255 15.8832 23.7955 16.0999 23.8505V24.4985C16.0999 25.0508 16.5476 25.4985 17.0999 25.4985C17.6522 25.4985 18.0999 25.0508 18.0999 24.4985V23.8025C18.1759 23.7792 18.2519 23.7568 18.3272 23.7288C19.2642 23.3775 20.0082 22.6825 20.4222 21.7715C20.8362 20.8609 20.8709 19.8432 20.5196 18.9066C20.1072 17.8066 19.2269 16.9829 18.1012 16.6412Z" fill="white" stroke="white" stroke-width="0.5"/>
</svg>
