<svg width="21" height="20" viewBox="0 0 21 20" fill="none" xmlns="http://www.w3.org/2000/svg">
<path d="M10.3259 12.7694C11.8553 12.7694 13.0951 11.5296 13.0951 10.0002C13.0951 8.47078 11.8553 7.23096 10.3259 7.23096C8.79647 7.23096 7.55664 8.47078 7.55664 10.0002C7.55664 11.5296 8.79647 12.7694 10.3259 12.7694Z" stroke="white" stroke-width="2" stroke-miterlimit="10" stroke-linecap="round" stroke-linejoin="round"/>
<path d="M18.466 6.09954L17.7737 4.90046C17.3916 4.23792 16.5449 4.01154 15.8823 4.39369L15.5182 4.60415C14.1336 5.40308 12.4028 4.40408 12.4028 2.80554V2.38462C12.4028 1.61962 11.7832 1 11.0182 1H9.63357C8.86857 1 8.24895 1.61962 8.24895 2.38462V2.80554C8.24895 4.40408 6.51818 5.40377 5.13356 4.60415L4.76941 4.39369C4.10687 4.01154 3.26018 4.23792 2.87803 4.90046L2.18572 6.09954C1.80356 6.76208 2.02995 7.60877 2.69249 7.99092L3.05664 8.20139C4.44126 9.001 4.44126 10.999 3.05664 11.7986L2.69249 12.0091C2.02995 12.3912 1.80356 13.2379 2.18572 13.9005L2.87803 15.0995C3.26018 15.7621 4.10687 15.9885 4.76941 15.6063L5.13356 15.3958C6.51818 14.5962 8.24895 15.5959 8.24895 17.1945V17.6154C8.24895 18.3804 8.86857 19 9.63357 19H11.0182C11.7832 19 12.4028 18.3804 12.4028 17.6154V17.1945C12.4028 15.5959 14.1336 14.5962 15.5182 15.3958L15.8823 15.6063C16.5449 15.9885 17.3916 15.7621 17.7737 15.0995L18.466 13.9005C18.8482 13.2379 18.6218 12.3912 17.9593 12.0091L17.5951 11.7986C16.2105 10.999 16.2105 9.001 17.5951 8.20139L17.9593 7.99092C18.6218 7.60877 18.8489 6.76208 18.466 6.09954Z" stroke="white" stroke-width="2" stroke-miterlimit="10" stroke-linecap="round" stroke-linejoin="round"/>
</svg>
