<svg width="34" height="34" viewBox="0 0 34 34" fill="none" xmlns="http://www.w3.org/2000/svg">
<path d="M26.5329 32.4067H8.14322C6.94089 32.4067 5.96289 31.4284 5.96289 30.2261V8.40641C5.96289 7.20407 6.94089 6.22607 8.14322 6.22607H12.2979C12.8472 6.22607 13.2922 6.67141 13.2922 7.22041C13.2922 7.76941 12.8469 8.21474 12.2979 8.21474H8.14322C8.03756 8.21474 7.95189 8.30074 7.95189 8.40607V30.2257C7.95189 30.3314 8.03789 30.4174 8.14322 30.4174H26.5329C26.6386 30.4174 26.7246 30.3314 26.7246 30.2257V8.40641C26.7246 8.30074 26.6386 8.21507 26.5329 8.21507H22.3786C21.8292 8.21507 21.3842 7.76974 21.3842 7.22074C21.3842 6.67174 21.8292 6.22641 22.3786 6.22641H26.5329C27.7352 6.22641 28.7136 7.20441 28.7136 8.40674V30.2264C28.7136 31.4284 27.7352 32.4067 26.5329 32.4067Z" fill="white"/>
<path d="M19.8348 5.14814C19.7015 3.88681 18.6348 2.90381 17.3381 2.90381C16.0415 2.90381 14.9748 3.88681 14.8415 5.14814H13.3778C12.4065 5.14814 11.6191 5.93548 11.6191 6.90681V8.72814H23.0571V6.90681C23.0571 5.93548 22.2698 5.14814 21.2985 5.14814H19.8348Z" fill="white"/>
<path d="M23.0574 9.2254H11.6194C11.3447 9.2254 11.1221 9.00274 11.1221 8.72807V6.90674C11.1221 5.66274 12.1341 4.65074 13.3781 4.65074H14.4277C14.7674 3.3444 15.9487 2.40674 17.3384 2.40674C18.7281 2.40674 19.9094 3.3444 20.2487 4.65107H21.2987C22.5424 4.65107 23.5544 5.66307 23.5544 6.90707V8.7284C23.5544 9.00307 23.3317 9.2254 23.0574 9.2254ZM12.1167 8.23107H22.5601V6.90707C22.5601 6.21141 21.9941 5.6454 21.2987 5.6454H19.8351C19.5807 5.6454 19.3674 5.4534 19.3407 5.2004C19.2317 4.17474 18.3714 3.40107 17.3384 3.40107C16.3054 3.40107 15.4447 4.17474 15.3361 5.2004C15.3094 5.4534 15.0961 5.6454 14.8417 5.6454H13.3781C12.6824 5.6454 12.1164 6.21141 12.1164 6.90707L12.1167 8.23107Z" fill="white"/>
<path d="M11.5758 16.0819C11.5475 16.0819 11.5191 16.0809 11.4905 16.0783C11.1818 16.0519 10.9028 15.8829 10.7365 15.6213L9.71012 14.0083C9.41545 13.5449 9.55212 12.9303 10.0155 12.6353C10.4785 12.3409 11.0935 12.4773 11.3885 12.9406L11.7158 13.4553L13.2148 11.8073C13.5845 11.4009 14.2135 11.3713 14.6195 11.7406C15.0258 12.1103 15.0555 12.7393 14.6861 13.1453L12.3111 15.7559C12.1221 15.9646 11.8545 16.0819 11.5758 16.0819Z" fill="white"/>
<path d="M11.5758 22.4072C11.5475 22.4072 11.5191 22.4059 11.4905 22.4036C11.1818 22.3769 10.9028 22.2079 10.7365 21.9466L9.71012 20.3336C9.41545 19.8702 9.55212 19.2556 10.0155 18.9606C10.4785 18.6656 11.0935 18.8026 11.3885 19.2659L11.7161 19.7806L13.2151 18.1329C13.5848 17.7266 14.2138 17.6969 14.6198 18.0666C15.0261 18.4359 15.0558 19.0649 14.6865 19.4712L12.3115 22.0819C12.1221 22.2899 11.8545 22.4072 11.5758 22.4072Z" fill="white"/>
<path d="M11.5758 28.7316C11.5475 28.7316 11.5191 28.7302 11.4905 28.7279C11.1818 28.7012 10.9028 28.5323 10.7365 28.2709L9.71012 26.6579C9.41545 26.1946 9.55212 25.5799 10.0155 25.2849C10.4785 24.9899 11.0935 25.1269 11.3885 25.5903L11.7158 26.1049L13.2148 24.4569C13.5845 24.0509 14.2135 24.0212 14.6195 24.3902C15.0258 24.7599 15.0555 25.3889 14.6861 25.7953L12.3111 28.4063C12.1221 28.6146 11.8545 28.7316 11.5758 28.7316Z" fill="white"/>
<path d="M24.1268 14.8964H17.4465C16.8971 14.8964 16.4521 14.451 16.4521 13.902C16.4521 13.3527 16.8975 12.9077 17.4465 12.9077H24.1268C24.6761 12.9077 25.1211 13.353 25.1211 13.902C25.1215 14.451 24.6761 14.8964 24.1268 14.8964Z" fill="white"/>
<path d="M24.1268 21.2211H17.4465C16.8971 21.2211 16.4521 20.7761 16.4521 20.2268C16.4521 19.6774 16.8975 19.2324 17.4465 19.2324H24.1268C24.6761 19.2324 25.1211 19.6774 25.1211 20.2268C25.1215 20.7761 24.6761 21.2211 24.1268 21.2211Z" fill="white"/>
<path d="M24.1268 27.5458H17.4465C16.8971 27.5458 16.4521 27.1008 16.4521 26.5515C16.4521 26.0021 16.8975 25.5571 17.4465 25.5571H24.1268C24.6761 25.5571 25.1211 26.0021 25.1211 26.5515C25.1215 27.1008 24.6761 27.5458 24.1268 27.5458Z" fill="white"/>
</svg>
