<svg width="34" height="34" viewBox="0 0 34 34" fill="none" xmlns="http://www.w3.org/2000/svg">
<path d="M26.5329 32.4063H8.14322C6.94089 32.4063 5.96289 31.4279 5.96289 30.2256V8.40592C5.96289 7.20359 6.94089 6.22559 8.14322 6.22559H12.2979C12.8472 6.22559 13.2922 6.67092 13.2922 7.21992C13.2922 7.76892 12.8469 8.21425 12.2979 8.21425H8.14322C8.03756 8.21425 7.95189 8.30025 7.95189 8.40559V30.2253C7.95189 30.3309 8.03789 30.4169 8.14322 30.4169H26.5329C26.6386 30.4169 26.7246 30.3309 26.7246 30.2253V8.40592C26.7246 8.30025 26.6386 8.21459 26.5329 8.21459H22.3786C21.8292 8.21459 21.3842 7.76925 21.3842 7.22025C21.3842 6.67125 21.8292 6.22592 22.3786 6.22592H26.5329C27.7352 6.22592 28.7136 7.20392 28.7136 8.40625V30.2259C28.7136 31.4279 27.7352 32.4063 26.5329 32.4063Z" fill="white"/>
<path d="M19.8348 5.14765C19.7015 3.88632 18.6348 2.90332 17.3381 2.90332C16.0415 2.90332 14.9748 3.88632 14.8415 5.14765H13.3778C12.4065 5.14765 11.6191 5.93499 11.6191 6.90632V8.72765H23.0571V6.90632C23.0571 5.93499 22.2698 5.14765 21.2985 5.14765H19.8348Z" fill="white"/>
<path d="M23.0574 9.22492H11.6194C11.3447 9.22492 11.1221 9.00225 11.1221 8.72758V6.90625C11.1221 5.66225 12.1341 4.65025 13.3781 4.65025H14.4277C14.7674 3.34392 15.9487 2.40625 17.3384 2.40625C18.7281 2.40625 19.9094 3.34392 20.2487 4.65058H21.2987C22.5424 4.65058 23.5544 5.66258 23.5544 6.90658V8.72792C23.5544 9.00258 23.3317 9.22492 23.0574 9.22492ZM12.1167 8.23058H22.5601V6.90658C22.5601 6.21092 21.9941 5.64492 21.2987 5.64492H19.8351C19.5807 5.64492 19.3674 5.45292 19.3407 5.19992C19.2317 4.17425 18.3714 3.40058 17.3384 3.40058C16.3054 3.40058 15.4447 4.17425 15.3361 5.19992C15.3094 5.45292 15.0961 5.64492 14.8417 5.64492H13.3781C12.6824 5.64492 12.1164 6.21092 12.1164 6.90658L12.1167 8.23058Z" fill="white"/>
<path d="M11.5758 16.0824C11.5475 16.0824 11.5191 16.0814 11.4905 16.0788C11.1818 16.0524 10.9028 15.8834 10.7365 15.6218L9.71012 14.0088C9.41545 13.5454 9.55212 12.9308 10.0155 12.6358C10.4785 12.3414 11.0935 12.4778 11.3885 12.9411L11.7158 13.4558L13.2148 11.8078C13.5845 11.4014 14.2135 11.3718 14.6195 11.7411C15.0258 12.1108 15.0555 12.7398 14.6861 13.1458L12.3111 15.7564C12.1221 15.9651 11.8545 16.0824 11.5758 16.0824Z" fill="white"/>
<path d="M11.5758 22.4072C11.5475 22.4072 11.5191 22.4059 11.4905 22.4036C11.1818 22.3769 10.9028 22.2079 10.7365 21.9466L9.71012 20.3336C9.41545 19.8702 9.55212 19.2556 10.0155 18.9606C10.4785 18.6656 11.0935 18.8026 11.3885 19.2659L11.7161 19.7806L13.2151 18.1329C13.5848 17.7266 14.2138 17.6969 14.6198 18.0666C15.0261 18.4359 15.0558 19.0649 14.6865 19.4712L12.3115 22.0819C12.1221 22.2899 11.8545 22.4072 11.5758 22.4072Z" fill="white"/>
<path d="M11.5758 28.7316C11.5475 28.7316 11.5191 28.7302 11.4905 28.7279C11.1818 28.7012 10.9028 28.5323 10.7365 28.2709L9.71012 26.6579C9.41545 26.1946 9.55212 25.5799 10.0155 25.2849C10.4785 24.9899 11.0935 25.1269 11.3885 25.5903L11.7158 26.1049L13.2148 24.4569C13.5845 24.0509 14.2135 24.0212 14.6195 24.3902C15.0258 24.7599 15.0555 25.3889 14.6861 25.7953L12.3111 28.4063C12.1221 28.6146 11.8545 28.7316 11.5758 28.7316Z" fill="white"/>
<path d="M24.1268 14.8969H17.4465C16.8971 14.8969 16.4521 14.4515 16.4521 13.9025C16.4521 13.3532 16.8975 12.9082 17.4465 12.9082H24.1268C24.6761 12.9082 25.1211 13.3535 25.1211 13.9025C25.1215 14.4515 24.6761 14.8969 24.1268 14.8969Z" fill="white"/>
<path d="M24.1268 21.2211H17.4465C16.8971 21.2211 16.4521 20.7761 16.4521 20.2268C16.4521 19.6774 16.8975 19.2324 17.4465 19.2324H24.1268C24.6761 19.2324 25.1211 19.6774 25.1211 20.2268C25.1215 20.7761 24.6761 21.2211 24.1268 21.2211Z" fill="white"/>
<path d="M24.1268 27.5453H17.4465C16.8971 27.5453 16.4521 27.1003 16.4521 26.551C16.4521 26.0016 16.8975 25.5566 17.4465 25.5566H24.1268C24.6761 25.5566 25.1211 26.0016 25.1211 26.551C25.1215 27.1003 24.6761 27.5453 24.1268 27.5453Z" fill="white"/>
</svg>
