<svg width="34" height="34" viewBox="0 0 34 34" fill="none" xmlns="http://www.w3.org/2000/svg">
<path d="M32.0956 7.51945C31.8973 7.33111 31.6343 7.22945 31.3566 7.24511C29.2536 7.34945 26.9762 7.69711 24.1896 8.34011C23.9186 8.40278 23.6863 8.57511 23.5476 8.81611C23.4729 8.94578 23.4319 9.08911 23.4202 9.23511C21.4829 8.68345 19.1529 8.39645 17.0193 8.47478C16.0376 8.48078 14.9576 8.92445 13.9643 9.58878H11.3573C11.4313 9.32911 11.3996 9.05078 11.2646 8.81611C11.1259 8.57511 10.8936 8.40278 10.6226 8.34011C7.83592 7.69711 5.55858 7.34911 3.45592 7.24511C3.18025 7.22745 2.91525 7.33078 2.71692 7.51945C2.51858 7.70845 2.40625 7.97011 2.40625 8.24411V19.1711C2.40625 19.7234 2.85392 20.1711 3.40625 20.1711H7.34492C7.56225 20.1711 7.76692 20.1004 7.93392 19.9788C11.0776 23.5808 14.2529 26.7148 16.9299 26.7148C17.3759 26.7148 17.8079 26.6274 18.2239 26.4411C18.5979 26.6988 19.0403 26.8394 19.5059 26.8424C19.5109 26.8424 19.5152 26.8424 19.5203 26.8424C20.1269 26.8424 20.6973 26.6088 21.1276 26.1838C21.2683 26.0448 21.3863 25.8894 21.4846 25.7238C21.6936 25.7844 21.9096 25.8154 22.1256 25.8154C22.7066 25.8154 23.2879 25.5961 23.7329 25.1564C24.0309 24.8621 24.2286 24.5048 24.3306 24.1268C24.8459 24.0871 25.3433 23.8821 25.7229 23.5071C26.5422 22.6978 26.6196 21.4188 25.9533 20.5191L26.8626 19.9658C27.0326 20.0951 27.2429 20.1708 27.4676 20.1708H31.4062C31.9586 20.1708 32.4062 19.7231 32.4062 19.1708V8.24411C32.4062 7.97011 32.2939 7.70845 32.0956 7.51945ZM17.0403 10.4748C17.0533 10.4748 17.0659 10.4744 17.0789 10.4741C19.4626 10.3824 22.1979 10.8141 24.0633 11.5598L26.0879 18.0964L24.6396 18.9778C22.6636 16.7591 20.4866 14.8188 18.1439 13.2031C17.8029 12.9678 17.3516 12.9674 17.0099 13.2021C16.7236 13.3988 16.3663 13.4674 15.8899 13.4214C15.5789 13.3911 15.2756 13.5054 15.0633 13.7318C13.6283 15.2584 13.1103 14.9694 12.5189 14.5064C12.4999 14.4024 12.5363 13.9784 13.0256 13.2528C14.0229 11.7731 15.8993 10.4748 17.0403 10.4748ZM4.40625 18.1711V9.31511C5.82825 9.44011 7.36458 9.68178 9.12158 10.0554L6.60792 18.1708L4.40625 18.1711ZM22.3276 23.7331C22.2563 23.8038 22.1709 23.8144 22.1256 23.8144C22.0799 23.8164 21.9936 23.8041 21.9206 23.7304L21.1476 22.9478L17.6632 19.4211C17.2749 19.0284 16.6419 19.0241 16.2489 19.4128C15.8559 19.8008 15.8523 20.4338 16.2402 20.8268L19.7243 24.3538C19.8339 24.4648 19.8329 24.6514 19.7219 24.7608C19.6502 24.8318 19.5649 24.8424 19.5196 24.8424C19.4769 24.8514 19.3876 24.8321 19.3149 24.7584L15.0576 20.4484C14.6692 20.0558 14.0363 20.0514 13.6432 20.4401C13.2502 20.8281 13.2466 21.4611 13.6346 21.8541L16.3666 24.6198C14.1353 24.0538 10.7809 20.2411 8.78392 17.9051L10.7403 11.5891H11.7743C11.3479 12.1191 11.0066 12.6664 10.7919 13.1874C10.1733 14.6888 10.7242 15.5521 11.1079 15.9328C11.1342 15.9591 11.1623 15.9838 11.1912 16.0068C12.3323 16.9108 13.9203 17.6388 16.1926 15.4351C16.6629 15.4308 17.0989 15.3501 17.4969 15.1938C19.9643 16.9634 22.2356 19.1178 24.2552 21.6051C24.2759 21.6301 24.2972 21.6541 24.3199 21.6774C24.4296 21.7884 24.4283 21.9748 24.3173 22.0844C24.2409 22.1604 23.9719 22.1508 23.8319 22.0084C23.8313 22.0078 23.8302 22.0071 23.8293 22.0064C23.8036 21.9778 23.7799 21.9481 23.7526 21.9208L20.2686 18.3934C19.8806 18.0004 19.2476 17.9968 18.8546 18.3851C18.4616 18.7731 18.4579 19.4061 18.8463 19.7991L22.3302 23.3261C22.4399 23.4371 22.4389 23.6234 22.3276 23.7331ZM30.4062 18.1711H28.2046L25.6913 10.0558C27.4479 9.68178 28.9846 9.44045 30.4066 9.31545L30.4062 18.1711Z" fill="white"/>
</svg>
