<svg width="18" height="18" viewBox="0 0 18 18" fill="none" xmlns="http://www.w3.org/2000/svg">
<path d="M14.4015 16.9987C14.2656 17.0001 14.1333 16.9569 14.0257 16.8763L9.00113 13.0725L3.96757 16.8763C3.87898 16.9437 3.77264 16.9855 3.66073 16.9969C3.54882 17.0082 3.43588 16.9887 3.33487 16.9405C3.23386 16.8923 3.14886 16.8174 3.08963 16.7244C3.03041 16.6314 2.99934 16.5241 3.00001 16.4147V4.74984C3.00001 4.28576 3.18966 3.84068 3.52725 3.51252C3.86484 3.18436 4.3227 3 4.80012 3H13.1999C13.6773 3 14.1352 3.18436 14.4728 3.51252C14.8103 3.84068 15 4.28576 15 4.74984V16.4147C15.0003 16.4913 14.985 16.5672 14.9551 16.6381C14.9251 16.7089 14.8811 16.7733 14.8255 16.8276C14.7699 16.8818 14.7038 16.9249 14.631 16.9542C14.5583 16.9836 14.4802 16.9987 14.4015 16.9987Z" fill="#3585F5"/>
</svg>
