<svg width="18" height="18" viewBox="0 0 18 18" fill="none" xmlns="http://www.w3.org/2000/svg">
<path d="M14.4015 15.9987C14.2656 16.0001 14.1333 15.9569 14.0257 15.8763L9.00113 12.0725L3.96757 15.8763C3.87898 15.9437 3.77264 15.9855 3.66073 15.9969C3.54882 16.0082 3.43588 15.9887 3.33487 15.9405C3.23386 15.8923 3.14886 15.8174 3.08963 15.7244C3.03041 15.6314 2.99934 15.5241 3.00001 15.4147V3.74984C3.00001 3.28576 3.18966 2.84068 3.52725 2.51252C3.86484 2.18436 4.3227 2 4.80012 2H13.1999C13.6773 2 14.1352 2.18436 14.4728 2.51252C14.8103 2.84068 15 3.28576 15 3.74984V15.4147C15.0003 15.4913 14.985 15.5672 14.9551 15.6381C14.9251 15.7089 14.8811 15.7733 14.8255 15.8276C14.7699 15.8818 14.7038 15.9249 14.631 15.9542C14.5583 15.9836 14.4802 15.9987 14.4015 15.9987ZM9.00113 10.7492C9.13392 10.7497 9.26285 10.7927 9.3679 10.8717L13.8007 14.2227V3.74984C13.8001 3.59513 13.7366 3.44692 13.6241 3.33752C13.5115 3.22812 13.359 3.16641 13.1999 3.16583H4.80012C4.64096 3.16641 4.4885 3.22812 4.37596 3.33752C4.26341 3.44692 4.19993 3.59513 4.19933 3.74984V14.2227L8.62535 10.8717C8.73292 10.791 8.86528 10.7479 9.00113 10.7492Z" fill="#3585F5"/>
</svg>
