<svg width="16" height="18" viewBox="0 0 16 18" fill="none" xmlns="http://www.w3.org/2000/svg">
<path d="M14.9963 2.11885e-05H0.750942C0.652223 -0.000350637 0.554407 0.0188189 0.463132 0.0564253C0.371856 0.0940317 0.288926 0.149331 0.219121 0.219136C0.149315 0.288942 0.0940159 0.371873 0.0564094 0.463148C0.018803 0.554424 -0.000366519 0.65224 5.30718e-06 0.750959V3.24908C-0.000366519 3.3478 0.018803 3.44562 0.0564094 3.53689C0.0940159 3.62817 0.149315 3.7111 0.219121 3.7809C0.288926 3.85071 0.371856 3.90601 0.463132 3.94361C0.554407 3.98122 0.652223 4.00039 0.750942 4.00002H14.9963C15.0952 4.00076 15.1933 3.98187 15.2849 3.94443C15.3765 3.90699 15.4598 3.85175 15.5299 3.78191C15.6 3.71206 15.6556 3.62901 15.6933 3.53755C15.7311 3.44609 15.7504 3.34804 15.75 3.24908V0.750959C15.7504 0.652002 15.7311 0.553954 15.6933 0.462493C15.6556 0.371032 15.6 0.287976 15.5299 0.218133C15.4598 0.148291 15.3765 0.0930503 15.2849 0.0556109C15.1933 0.0181714 15.0952 -0.000723562 14.9963 2.11885e-05ZM14.2481 2.50096H1.49907V1.49908H14.2481V2.50096Z" fill="#111111"/>
<path d="M14.9963 7.00002H0.750942C0.652223 6.99965 0.554407 7.01882 0.463132 7.05643C0.371856 7.09403 0.288926 7.14933 0.219121 7.21914C0.149315 7.28894 0.0940159 7.37187 0.0564094 7.46315C0.018803 7.55442 -0.000366519 7.65224 5.30718e-06 7.75096V10.2491C-0.000366519 10.3478 0.018803 10.4456 0.0564094 10.5369C0.0940159 10.6282 0.149315 10.7111 0.219121 10.7809C0.288926 10.8507 0.371856 10.906 0.463132 10.9436C0.554407 10.9812 0.652223 11.0004 0.750942 11H14.9963C15.0952 11.0008 15.1933 10.9819 15.2849 10.9444C15.3765 10.907 15.4598 10.8517 15.5299 10.7819C15.6 10.7121 15.6556 10.629 15.6933 10.5375C15.7311 10.4461 15.7504 10.348 15.75 10.2491V7.75096C15.7504 7.652 15.7311 7.55395 15.6933 7.46249C15.6556 7.37103 15.6 7.28798 15.5299 7.21813C15.4598 7.14829 15.3765 7.09305 15.2849 7.05561C15.1933 7.01817 15.0952 6.99928 14.9963 7.00002ZM14.2481 9.50096H1.49907V8.49908H14.2481V9.50096Z" fill="#111111"/>
<path d="M14.9963 14H0.750942C0.652223 13.9996 0.554407 14.0188 0.463132 14.0564C0.371856 14.094 0.288926 14.1493 0.219121 14.2191C0.149315 14.2889 0.0940159 14.3719 0.0564094 14.4631C0.018803 14.5544 -0.000366519 14.6522 5.30718e-06 14.751V17.2491C-0.000366519 17.3478 0.018803 17.4456 0.0564094 17.5369C0.0940159 17.6282 0.149315 17.7111 0.219121 17.7809C0.288926 17.8507 0.371856 17.906 0.463132 17.9436C0.554407 17.9812 0.652223 18.0004 0.750942 18H14.9963C15.0952 18.0008 15.1933 17.9819 15.2849 17.9444C15.3765 17.907 15.4598 17.8517 15.5299 17.7819C15.6 17.7121 15.6556 17.629 15.6933 17.5375C15.7311 17.4461 15.7504 17.348 15.75 17.2491V14.751C15.7504 14.652 15.7311 14.554 15.6933 14.4625C15.6556 14.371 15.6 14.288 15.5299 14.2181C15.4598 14.1483 15.3765 14.0931 15.2849 14.0556C15.1933 14.0182 15.0952 13.9993 14.9963 14ZM14.2481 16.501H1.49907V15.4991H14.2481V16.501Z" fill="#111111"/>
</svg>
