<svg width="16" height="16" viewBox="0 0 16 16" fill="none" xmlns="http://www.w3.org/2000/svg">
<g clip-path="url(#clip0_975_379)">
<path d="M13.3327 2H2.66602C1.56145 2 0.666016 2.89543 0.666016 4V13.3333C0.666016 14.4379 1.56145 15.3333 2.66602 15.3333H13.3327C14.4373 15.3333 15.3327 14.4379 15.3327 13.3333V4C15.3327 2.89543 14.4373 2 13.3327 2Z" stroke="#111111" stroke-width="1.5" stroke-linecap="round" stroke-linejoin="round"/>
<path d="M0.666016 6H15.3327" stroke="#111111" stroke-width="1.5" stroke-linecap="round" stroke-linejoin="round"/>
<path d="M8 3.33366V0.666992" stroke="#111111" stroke-width="1.5" stroke-linecap="round" stroke-linejoin="round"/>
<path d="M4 3.33366V0.666992" stroke="#111111" stroke-width="1.5" stroke-linecap="round" stroke-linejoin="round"/>
<path d="M12 3.33366V0.666992" stroke="#111111" stroke-width="1.5" stroke-linecap="round" stroke-linejoin="round"/>
<path d="M3.33203 9.33398H4.66536" stroke="#111111" stroke-width="1.5" stroke-linecap="round" stroke-linejoin="round"/>
<path d="M7.33203 9.33398H8.66536" stroke="#111111" stroke-width="1.5" stroke-linecap="round" stroke-linejoin="round"/>
<path d="M11.332 9.33398H12.6654" stroke="#111111" stroke-width="1.5" stroke-linecap="round" stroke-linejoin="round"/>
<path d="M3.33203 12H4.66536" stroke="#111111" stroke-width="1.5" stroke-linecap="round" stroke-linejoin="round"/>
<path d="M7.33203 12H8.66536" stroke="#111111" stroke-width="1.5" stroke-linecap="round" stroke-linejoin="round"/>
<path d="M11.332 12H12.6654" stroke="#111111" stroke-width="1.5" stroke-linecap="round" stroke-linejoin="round"/>
</g>
<defs>
<clipPath id="clip0_975_379">
<rect width="16" height="16" fill="white"/>
</clipPath>
</defs>
</svg>
