<svg width="18" height="18" viewBox="0 0 18 18" fill="none" xmlns="http://www.w3.org/2000/svg">
<path d="M5.12044 15.9984C4.28698 15.9984 3.50329 15.6738 2.91404 15.0844C2.32464 14.4951 2 13.7116 2 12.878C2 12.0443 2.32449 11.2608 2.91389 10.6716L6.09033 7.49497C7.30709 6.27837 9.28669 6.27837 10.5031 7.49497C10.8069 7.79877 10.8069 8.29126 10.5031 8.5949C10.1996 8.89855 9.70684 8.89855 9.40335 8.5949C8.79342 7.98497 7.80067 7.98481 7.19027 8.5949L4.01398 11.7713C3.40389 12.3816 3.40389 13.3742 4.01398 13.9844C4.30953 14.28 4.70247 14.4427 5.12044 14.4427C5.53842 14.4427 5.93135 14.28 6.22691 13.9844L7.80067 12.411C8.10462 12.1072 8.59695 12.1073 8.9006 12.411C9.20424 12.7146 9.2044 13.2071 8.9006 13.5108L7.32684 15.0844C6.73744 15.6738 5.95391 15.9984 5.12044 15.9984Z" fill="#3585F5"/>
<path d="M9.70296 11.4157C8.86949 11.4157 8.0858 11.0911 7.4964 10.5017C7.1926 10.198 7.1926 9.70556 7.4964 9.40176C7.8002 9.09827 8.29269 9.09827 8.59634 9.40192C8.89189 9.69747 9.28498 9.86018 9.7028 9.86018C10.1206 9.86018 10.5137 9.69747 10.8091 9.40192L13.9857 6.22547C14.2813 5.92992 14.444 5.53698 14.444 5.11901C14.444 4.70103 14.2813 4.30809 13.9857 4.01254C13.3756 3.40245 12.3827 3.40245 11.7726 4.01254L10.199 5.58614C9.89554 5.88978 9.40289 5.88978 9.09909 5.58614C8.79529 5.28234 8.79529 4.78985 9.09909 4.48621L10.673 2.91245C11.8894 1.69585 13.8692 1.69585 15.0856 2.91245C15.675 3.50185 15.9997 4.28538 15.9997 5.11901C15.9997 5.95263 15.675 6.73616 15.0856 7.32556L11.9092 10.5018C11.32 11.0911 10.5364 11.4157 9.70296 11.4157Z" fill="#3585F5"/>
</svg>
