<svg width="60" height="40" viewBox="0 0 60 40" fill="none" xmlns="http://www.w3.org/2000/svg">
<rect width="60" height="40" rx="8" fill="#F1F1F1"/>
<path d="M36.75 13H23.25C22.6533 13 22.081 13.2371 21.659 13.659C21.2371 14.081 21 14.6533 21 15.25V24.25C20.9986 24.5037 21.0444 24.7555 21.135 24.9925C21.3127 25.4972 21.6635 25.9227 22.125 26.1934C22.4671 26.3915 22.8548 26.4971 23.25 26.5H36.75C37.1253 26.4982 37.4944 26.4036 37.8242 26.2244C38.154 26.0453 38.4343 25.7873 38.64 25.4734C38.8729 25.1077 38.9977 24.6836 39 24.25V15.25C39 14.6533 38.763 14.081 38.341 13.659C37.9191 13.2371 37.3468 13 36.75 13ZM30.2813 25.0009H23.25C23.1701 25.0001 23.091 24.9849 23.0166 24.9559L27.0891 19.3984L30.4275 22.734L31.485 23.7915L32.686 25.0009H30.2813ZM37.501 24.25C37.5002 24.4489 37.4209 24.6395 37.2802 24.7802C37.1395 24.9208 36.949 25.0002 36.75 25.0009H34.815L32.565 22.734L34.4832 20.8384L37.515 24.2134L37.501 24.25ZM37.501 21.9634L35.0625 19.2466C34.9946 19.1724 34.9126 19.1123 34.8214 19.0699C34.7302 19.0274 34.6315 19.0033 34.531 18.9991C34.4292 18.9942 34.3275 19.0113 34.2329 19.0491C34.1383 19.087 34.0529 19.1447 33.9825 19.2184L31.5019 21.6765L27.5335 17.7166C27.4545 17.642 27.3611 17.5843 27.2591 17.5471C27.157 17.5099 27.0485 17.4938 26.94 17.5C26.8323 17.51 26.7279 17.5425 26.6334 17.5953C26.539 17.6481 26.4566 17.7201 26.3916 17.8066L22.4991 23.125V15.25C22.4998 15.0511 22.5792 14.8605 22.7199 14.7198C22.8605 14.5792 23.0511 14.4998 23.25 14.4991H36.75C36.949 14.4998 37.1395 14.5792 37.2802 14.7198C37.4209 14.8605 37.5002 15.0511 37.501 15.25V21.9634Z" fill="#AAAAAA"/>
<path d="M31.4991 19.7501C32.327 19.7501 32.9981 19.0789 32.9981 18.251C32.9981 17.4231 32.327 16.752 31.4991 16.752C30.6712 16.752 30 17.4231 30 18.251C30 19.0789 30.6712 19.7501 31.4991 19.7501Z" fill="#AAAAAA"/>
</svg>
