<svg width="50" height="50" viewBox="0 0 50 50" fill="none" xmlns="http://www.w3.org/2000/svg">
<rect x="0.5" y="0.5" width="49" height="49" rx="7.5" fill="white" stroke="#D5DBE3"/>
<path d="M24.818 27.6892C21.5178 27.6892 18.833 25.0044 18.833 21.7042C18.833 18.404 21.5178 15.7192 24.818 15.7192C28.1179 15.7192 30.8029 18.404 30.8029 21.7042C30.8029 25.0044 28.1179 27.6892 24.818 27.6892Z" fill="#AAAAAA"/>
<path d="M24.8184 10C16.6475 10 10 16.6475 10 24.8184C10 32.9892 16.6475 39.6367 24.8184 39.6367C32.9892 39.6367 39.6367 32.9892 39.6367 24.8184C39.6367 16.6475 32.9892 10 24.8184 10ZM34.6383 33.0824C33.4716 31.3526 31.8535 29.9317 29.9758 29.0212C29.2313 28.6603 28.3619 28.6655 27.5894 29.0367C26.7207 29.4542 25.7881 29.6656 24.8184 29.6656C23.8486 29.6656 22.9163 29.4539 22.0473 29.0367C21.2758 28.6662 20.4061 28.6603 19.6609 29.0212C17.7833 29.9317 16.1651 31.3526 14.9981 33.0824C13.1142 30.8471 11.9758 27.9638 11.9758 24.8184C11.9758 17.7368 17.7368 11.9758 24.8184 11.9758C31.8999 11.9758 37.6609 17.7368 37.6609 24.8184C37.6609 27.9638 36.5226 30.8471 34.6383 33.0824Z" fill="#AAAAAA"/>
</svg>
