<svg width="25" height="24" viewBox="0 0 25 24" fill="none" xmlns="http://www.w3.org/2000/svg">
<path fill-rule="evenodd" clip-rule="evenodd" d="M13 3.9375C10.2077 3.9375 7.9375 6.228 7.9375 9.05325C7.9375 10.0103 8.359 11.1975 8.9725 12.3818C10.3233 14.9895 12.5732 17.616 12.5732 17.616C12.6797 17.7405 12.8358 17.8125 13 17.8125C13.1642 17.8125 13.3203 17.7405 13.4268 17.616C13.4268 17.616 15.6768 14.9895 17.0275 12.3818C17.641 11.1975 18.0625 10.0103 18.0625 9.05325C18.0625 6.228 15.7923 3.9375 13 3.9375ZM13 5.0625C15.175 5.0625 16.9375 6.85275 16.9375 9.05325C16.9375 10.1528 16.24 11.5852 15.4345 12.921C14.5705 14.3535 13.5595 15.669 13 16.365C12.4405 15.669 11.4295 14.3535 10.5655 12.921C9.76 11.5852 9.0625 10.1528 9.0625 9.05325C9.0625 6.85275 10.825 5.0625 13 5.0625Z" fill="#AAAAAA"/>
<path fill-rule="evenodd" clip-rule="evenodd" d="M13 6.9375C11.8615 6.9375 10.9375 7.8615 10.9375 9C10.9375 10.1385 11.8615 11.0625 13 11.0625C14.1385 11.0625 15.0625 10.1385 15.0625 9C15.0625 7.8615 14.1385 6.9375 13 6.9375ZM13 8.0625C13.5175 8.0625 13.9375 8.4825 13.9375 9C13.9375 9.5175 13.5175 9.9375 13 9.9375C12.4825 9.9375 12.0625 9.5175 12.0625 9C12.0625 8.4825 12.4825 8.0625 13 8.0625Z" fill="#AAAAAA"/>
<path fill-rule="evenodd" clip-rule="evenodd" d="M16.588 16.0328C17.1978 16.2158 17.7002 16.4423 18.0475 16.7078C18.2725 16.8788 18.4375 17.046 18.4375 17.25C18.4375 17.37 18.3693 17.4788 18.2733 17.5875C18.1143 17.7668 17.878 17.928 17.5855 18.078C16.552 18.6068 14.881 18.9375 13 18.9375C11.119 18.9375 9.448 18.6068 8.4145 18.078C8.122 17.928 7.88575 17.7668 7.72675 17.5875C7.63075 17.4788 7.5625 17.37 7.5625 17.25C7.5625 17.046 7.7275 16.8788 7.9525 16.7078C8.29975 16.4423 8.80225 16.2158 9.412 16.0328C9.709 15.9435 9.87775 15.6293 9.7885 15.3323C9.69925 15.0345 9.385 14.8658 9.088 14.955C8.1595 15.2348 7.438 15.618 7.0045 16.0418C6.6235 16.413 6.4375 16.8285 6.4375 17.25C6.4375 17.7765 6.73525 18.3015 7.3405 18.7395C8.4025 19.5075 10.5355 20.0625 13 20.0625C15.4645 20.0625 17.5975 19.5075 18.6595 18.7395C19.2647 18.3015 19.5625 17.7765 19.5625 17.25C19.5625 16.8285 19.3765 16.413 18.9955 16.0418C18.562 15.618 17.8405 15.2348 16.912 14.955C16.615 14.8658 16.3007 15.0345 16.2115 15.3323C16.1222 15.6293 16.291 15.9435 16.588 16.0328Z" fill="#AAAAAA"/>
</svg>
