<svg width="16" height="16" viewBox="0 0 16 16" fill="none" xmlns="http://www.w3.org/2000/svg">
<g clip-path="url(#clip0_588_1151)">
<path d="M8.0009 14.7307C4.28361 14.7307 1.27013 11.7172 1.27013 7.99992C1.27013 4.28263 4.28361 1.26916 8.0009 1.26916C11.7182 1.26916 14.7317 4.28263 14.7317 7.99992C14.7317 11.7172 11.7182 14.7307 8.0009 14.7307ZM8.0009 15.6922C12.2492 15.6922 15.6932 12.2483 15.6932 7.99992C15.6932 3.75159 12.2492 0.307617 8.0009 0.307617C3.75256 0.307617 0.308594 3.75159 0.308594 7.99992C0.308594 12.2483 3.75256 15.6922 8.0009 15.6922Z" fill="#111111"/>
<path d="M8.89579 6.64258L6.6929 6.91864L6.61404 7.28486L7.04785 7.36372C7.32955 7.43132 7.38588 7.53273 7.32392 7.81445L6.61404 11.1498C6.4281 12.0118 6.71545 12.4174 7.39152 12.4174C7.91548 12.4174 8.52398 12.1752 8.80004 11.8428L8.88453 11.4427C8.69299 11.6118 8.41127 11.6794 8.22536 11.6794C7.96056 11.6794 7.86478 11.4934 7.93238 11.1667L8.89579 6.64258Z" fill="#111111"/>
<path d="M8.96214 4.63439C8.96214 5.16544 8.53165 5.59593 8.0006 5.59593C7.46955 5.59593 7.03906 5.16544 7.03906 4.63439C7.03906 4.10334 7.46955 3.67285 8.0006 3.67285C8.53165 3.67285 8.96214 4.10334 8.96214 4.63439Z" fill="#111111"/>
<path d="M8.89534 6.64267L9.04583 6.6747L9.09088 6.4631L8.87624 6.48999L8.89534 6.64267ZM6.69245 6.91873L6.67334 6.76608L6.56503 6.77965L6.54205 6.88633L6.69245 6.91873ZM6.61359 7.28494L6.46319 7.25254L6.42974 7.40787L6.58605 7.4363L6.61359 7.28494ZM7.0474 7.3638L7.08331 7.2142L7.07913 7.21322L7.07491 7.21245L7.0474 7.3638ZM7.32347 7.81454L7.17322 7.78147L7.173 7.78251L7.32347 7.81454ZM6.61359 11.1499L6.76396 11.1823L6.76405 11.1819L6.61359 11.1499ZM8.79959 11.8429L8.91793 11.9411L8.94223 11.9119L8.95011 11.8746L8.79959 11.8429ZM8.88408 11.4428L9.0346 11.4746L9.13063 11.0201L8.7823 11.3275L8.88408 11.4428ZM7.93193 11.1668L7.78147 11.1347L7.78128 11.1356L7.93193 11.1668ZM14.5774 8.00045C14.5774 11.6328 11.6328 14.5774 8.00045 14.5774V14.8851C11.8027 14.8851 14.8851 11.8027 14.8851 8.00045H14.5774ZM8.00045 1.42353C11.6328 1.42353 14.5774 4.36811 14.5774 8.00045H14.8851C14.8851 4.19817 11.8027 1.11584 8.00045 1.11584V1.42353ZM1.42353 8.00045C1.42353 4.36811 4.36811 1.42353 8.00045 1.42353V1.11584C4.19817 1.11584 1.11584 4.19817 1.11584 8.00045H1.42353ZM8.00045 14.5774C4.36811 14.5774 1.42353 11.6328 1.42353 8.00045H1.11584C1.11584 11.8027 4.19817 14.8851 8.00045 14.8851V14.5774ZM15.5389 8.00045C15.5389 12.1638 12.1638 15.5389 8.00045 15.5389V15.8466C12.3338 15.8466 15.8466 12.3338 15.8466 8.00045H15.5389ZM8.00045 0.461989C12.1638 0.461989 15.5389 3.83707 15.5389 8.00045H15.8466C15.8466 3.66713 12.3338 0.154297 8.00045 0.154297V0.461989ZM0.461989 8.00045C0.461989 3.83707 3.83707 0.461989 8.00045 0.461989V0.154297C3.66713 0.154297 0.154297 3.66713 0.154297 8.00045H0.461989ZM8.00045 15.5389C3.83707 15.5389 0.461989 12.1638 0.461989 8.00045H0.154297C0.154297 12.3338 3.66713 15.8466 8.00045 15.8466V15.5389ZM8.87624 6.48999L6.67334 6.76608L6.71159 7.07137L8.91448 6.79531L8.87624 6.48999ZM6.54205 6.88633L6.46319 7.25254L6.76399 7.31731L6.84285 6.95113L6.54205 6.88633ZM6.58605 7.4363L7.01987 7.51516L7.07491 7.21245L6.6411 7.13356L6.58605 7.4363ZM7.0115 7.5134C7.1482 7.5462 7.17574 7.57697 7.18251 7.58823C7.19042 7.60137 7.20374 7.6427 7.17322 7.78147L7.47371 7.84759C7.50516 7.70467 7.52131 7.55445 7.44611 7.42953C7.3698 7.30276 7.2283 7.249 7.08331 7.2142L7.0115 7.5134ZM7.173 7.78251L6.4631 11.1178L6.76405 11.1819L7.47396 7.84654L7.173 7.78251ZM6.46319 11.1174C6.36728 11.5621 6.3835 11.929 6.54928 12.1895C6.7214 12.46 7.02427 12.5714 7.39107 12.5714V12.2637C7.0818 12.2637 6.90297 12.1722 6.80888 12.0244C6.70845 11.8665 6.67396 11.5996 6.76396 11.1823L6.46319 11.1174ZM7.39107 12.5714C7.67516 12.5714 7.97784 12.5061 8.24605 12.3974C8.51264 12.2895 8.75839 12.1333 8.91793 11.9411L8.68122 11.7445C8.5647 11.8849 8.36817 12.016 8.13054 12.1122C7.89448 12.2078 7.63094 12.2637 7.39107 12.2637V12.5714ZM8.95011 11.8746L9.0346 11.4746L8.73356 11.411L8.64907 11.811L8.95011 11.8746ZM8.7823 11.3275C8.62636 11.4651 8.38473 11.5256 8.22491 11.5256V11.8333C8.43694 11.8333 8.75873 11.7586 8.98587 11.5582L8.7823 11.3275ZM8.22491 11.5256C8.13107 11.5256 8.10217 11.496 8.0882 11.4708C8.06636 11.4316 8.05153 11.3481 8.0826 11.1979L7.78128 11.1356C7.74476 11.3122 7.74399 11.4851 7.81934 11.6205C7.90254 11.77 8.05396 11.8333 8.22491 11.8333V11.5256ZM8.08242 11.1988L9.04583 6.6747L8.74488 6.6106L7.78147 11.1347L8.08242 11.1988ZM8.80814 4.63507C8.80814 5.08113 8.44651 5.44276 8.00045 5.44276V5.75045C8.61645 5.75045 9.11584 5.25107 9.11584 4.63507H8.80814ZM8.00045 5.44276C7.55439 5.44276 7.19276 5.08113 7.19276 4.63507H6.88507C6.88507 5.25107 7.38445 5.75045 8.00045 5.75045V5.44276ZM7.19276 4.63507C7.19276 4.189 7.55439 3.82737 8.00045 3.82737V3.51968C7.38445 3.51968 6.88507 4.01907 6.88507 4.63507H7.19276ZM8.00045 3.82737C8.44651 3.82737 8.80814 4.189 8.80814 4.63507H9.11584C9.11584 4.01907 8.61645 3.51968 8.00045 3.51968V3.82737Z" fill="#111111"/>
</g>
<defs>
<clipPath id="clip0_588_1151">
<rect width="16" height="16" fill="white"/>
</clipPath>
</defs>
</svg>
