<svg width="18" height="18" viewBox="0 0 18 18" fill="none" xmlns="http://www.w3.org/2000/svg">
<path d="M17.8509 3.50791C17.6895 3.06528 17.4021 2.68401 17.0269 2.4147C16.6517 2.14538 16.2063 2.00075 15.75 2L2.25003 2C1.78593 2.00128 1.33357 2.15136 0.95494 2.42966C0.576306 2.70797 0.289921 3.10089 0.135031 3.55458C0.0443908 3.80339 -0.00136967 4.06736 3.12164e-05 4.33333V13.6666C0.000378303 14.1311 0.134393 14.5849 0.384916 14.9699C0.635439 15.355 0.991071 15.6537 1.40628 15.8279C1.67393 15.942 1.96062 16.0005 2.25003 16H15.75C16.025 16.0016 16.2976 15.9461 16.5516 15.8366C17.0477 15.6477 17.4619 15.2803 17.7187 14.8012C17.904 14.454 18.0008 14.0635 18 13.6666V4.33333C17.9997 4.05102 17.9492 3.77119 17.8509 3.50791ZM1.49909 4.33333C1.49983 4.12703 1.57919 3.9294 1.71985 3.78352C1.86052 3.63764 2.05109 3.55535 2.25003 3.55458H15.75C15.9489 3.55535 16.1395 3.63764 16.2802 3.78352C16.4208 3.9294 16.5002 4.12703 16.5009 4.33333V4.48208L10.5216 9.14873L9.28126 10.1433L9.00001 10.3621L8.71876 10.1346L7.46439 9.16332L1.49909 4.51124V4.33333ZM1.49909 13.6666V6.45666L6.21846 10.1346L1.51597 13.7979C1.50556 13.7549 1.49989 13.7109 1.49909 13.6666ZM3.18659 14.4454L7.47002 11.1087L8.55001 11.9546C8.67934 12.0567 8.83743 12.1121 9.00001 12.1121C9.1626 12.1121 9.32069 12.0567 9.45001 11.9546L10.5216 11.1146L14.7741 14.4454H3.18659ZM16.5009 13.6666C16.5009 13.7219 16.4934 13.7769 16.4784 13.83L11.7675 10.1346L16.5009 6.42457V13.6666Z" fill="#3585F5"/>
</svg>
