<svg width="27" height="36" viewBox="0 0 27 36" fill="none" xmlns="http://www.w3.org/2000/svg">
<path d="M23.3573 21.4394L23.3573 21.4395C21.5933 24.7529 19.23 28.0986 17.294 30.6295C16.3285 31.8916 15.4746 32.9442 14.8627 33.6805C14.5568 34.0485 14.3117 34.3372 14.1437 34.5332C14.0597 34.6312 13.9949 34.706 13.9516 34.7559L13.9027 34.8119L13.8908 34.8255L13.888 34.8287L13.8875 34.8293L13.8875 34.8293L13.8874 34.8294L13.887 34.8299C13.7961 34.9333 13.6554 35 13.5 35C13.3446 35 13.2039 34.9333 13.113 34.8299L13.1126 34.8294L13.1125 34.8293L13.1125 34.8293L13.112 34.8287L13.1092 34.8255L13.0973 34.8119L13.0484 34.7559C13.0051 34.706 12.9403 34.6312 12.8563 34.5332C12.6883 34.3372 12.4432 34.0485 12.1373 33.6805C11.5254 32.9442 10.6715 31.8916 9.70601 30.6295C7.76999 28.0986 5.40666 24.7529 3.64271 21.4395L3.64268 21.4394C2.02765 18.4062 1 15.5045 1 13.2733C1 6.51156 6.58979 1 13.5 1C20.4102 1 26 6.51156 26 13.2733C26 15.5045 24.9723 18.4062 23.3573 21.4394Z" fill="#3585F5" stroke="white" stroke-width="2"/>
</svg>
