<svg width="18" height="18" viewBox="0 0 18 18" fill="none" xmlns="http://www.w3.org/2000/svg">
<path d="M2.62231 9.62222C2.4631 9.46301 2.36455 9.24298 2.36455 9C2.36455 8.51389 2.75842 8.12003 3.24453 8.12003L14.7556 8.12003C15.2416 8.12011 15.6355 8.51397 15.6356 9C15.6356 9.48595 15.2416 9.87989 14.7557 9.87989L3.24461 9.87989C3.00155 9.87997 2.78152 9.78143 2.62231 9.62222Z" fill="#3585F5"/>
<path d="M8.37792 15.3776C8.21863 15.2184 8.12016 14.9984 8.12016 14.7554L8.12016 3.24441C8.12008 2.75839 8.51403 2.36444 9.00006 2.36452C9.48601 2.36452 9.87995 2.75846 9.87995 3.24441L9.87995 14.7554C9.87988 15.2415 9.48601 15.6353 8.99998 15.6354C8.75716 15.6354 8.53721 15.5369 8.37792 15.3776Z" fill="#3585F5"/>
</svg>
