<svg width="24" height="24" viewBox="0 0 24 24" fill="none" xmlns="http://www.w3.org/2000/svg">
<path d="M2.57765 8.83373L7.00388 4.42365V4.43148L7.85782 3.57563C7.88113 3.55227 7.90881 3.53374 7.93928 3.5211C7.96975 3.50846 8.00241 3.50195 8.0354 3.50195C8.06838 3.50195 8.10105 3.50846 8.13151 3.5211C8.16178 3.53366 8.18928 3.55202 8.21249 3.57514C8.21265 3.57531 8.21281 3.57547 8.21297 3.57563L13.4256 8.8393L13.4359 8.84965L13.4467 8.85939C13.4721 8.8822 13.4926 8.90996 13.5069 8.94096L13.9609 8.73158L13.5069 8.94096C13.5212 8.97196 13.529 9.00556 13.5298 9.03969C13.5307 9.07382 13.5246 9.10777 13.5119 9.13946C13.4992 9.17115 13.4802 9.19991 13.456 9.22399C13.4318 9.24806 13.4029 9.26694 13.3712 9.27947C13.3394 9.292 13.3055 9.29793 13.2713 9.29688C13.2372 9.29583 13.2037 9.28784 13.1728 9.27338C13.1419 9.25892 13.1142 9.23831 13.0916 9.21279L13.0827 9.20287L13.0734 9.19343L9.10527 5.17999L8.24972 4.31467V5.53153V20.2493V20.2647L8.25065 20.2799C8.25275 20.3141 8.24782 20.3484 8.23618 20.3806C8.22454 20.4128 8.20643 20.4423 8.18297 20.4672C8.15951 20.4922 8.1312 20.512 8.09977 20.5256C8.06835 20.5392 8.03448 20.5462 8.00024 20.5462C7.966 20.5462 7.93213 20.5392 7.90071 20.5256C7.86929 20.512 7.84097 20.4922 7.81751 20.4672C7.79405 20.4423 7.77594 20.4128 7.7643 20.3806C7.75266 20.3484 7.74774 20.3141 7.74983 20.2799L7.75077 20.2647V20.2493V5.59059V4.38644L6.89783 5.23643L2.93181 9.18871C2.88471 9.23222 2.82268 9.25607 2.75848 9.25526C2.69293 9.25444 2.6303 9.22799 2.584 9.18156C2.5377 9.13513 2.5114 9.07241 2.51075 9.00682C2.51012 8.94264 2.5341 8.88071 2.57765 8.83373Z" fill="#111111" stroke="#111111"/>
<path d="M11.5777 15.2146L16.0039 19.6247V19.6169L16.8578 20.4727C16.8811 20.4961 16.9088 20.5146 16.9393 20.5272C16.9697 20.5399 17.0024 20.5464 17.0354 20.5464C17.0684 20.5464 17.101 20.5399 17.1315 20.5272C17.1618 20.5147 17.1893 20.4963 17.2125 20.4732C17.2126 20.473 17.2128 20.4729 17.213 20.4727L22.4256 15.209L22.4359 15.1987L22.4467 15.189C22.4721 15.1661 22.4926 15.1384 22.5069 15.1074L22.9609 15.3168L22.5069 15.1074C22.5212 15.0764 22.529 15.0428 22.5298 15.0087C22.5307 14.9745 22.5246 14.9406 22.5119 14.9089C22.4992 14.8772 22.4802 14.8484 22.456 14.8244C22.4318 14.8003 22.4029 14.7814 22.3712 14.7689C22.3394 14.7563 22.3055 14.7504 22.2713 14.7515C22.2372 14.7525 22.2037 14.7605 22.1728 14.775C22.1419 14.7894 22.1142 14.81 22.0916 14.8355L22.0827 14.8455L22.0734 14.8549L18.1053 18.8684L17.2497 19.7337V18.5168V3.799V3.78369L17.2507 3.76841C17.2527 3.73423 17.2478 3.69997 17.2362 3.66776C17.2245 3.63555 17.2064 3.60607 17.183 3.58112C17.1595 3.55618 17.1312 3.5363 17.0998 3.52272C17.0684 3.50913 17.0345 3.50213 17.0002 3.50213C16.966 3.50213 16.9321 3.50913 16.9007 3.52272C16.8693 3.5363 16.841 3.55618 16.8175 3.58112C16.7941 3.60607 16.7759 3.63555 16.7643 3.66776C16.7527 3.69997 16.7477 3.73423 16.7498 3.76841L16.7508 3.78369V3.799V18.4577V19.6619L15.8978 18.8119L11.9318 14.8596C11.8847 14.8161 11.8227 14.7923 11.7585 14.7931C11.6929 14.7939 11.6303 14.8203 11.584 14.8668C11.5377 14.9132 11.5114 14.9759 11.5108 15.0415C11.5101 15.1057 11.5341 15.1676 11.5777 15.2146Z" fill="#111111" stroke="#111111"/>
<rect x="1.25" y="23.25" width="1.5" height="0.5" fill="#111111" stroke="#111111" stroke-width="0.5"/>
<rect x="5.25" y="23.25" width="1.5" height="0.5" fill="#111111" stroke="#111111" stroke-width="0.5"/>
<rect x="9.25" y="23.25" width="1.5" height="0.5" fill="#111111" stroke="#111111" stroke-width="0.5"/>
<rect x="13.25" y="23.25" width="1.5" height="0.5" fill="#111111" stroke="#111111" stroke-width="0.5"/>
<rect x="17.25" y="23.25" width="1.5" height="0.5" fill="#111111" stroke="#111111" stroke-width="0.5"/>
<rect x="21.25" y="23.25" width="1.5" height="0.5" fill="#111111" stroke="#111111" stroke-width="0.5"/>
</svg>
