<svg width="16" height="16" viewBox="0 0 16 16" fill="none" xmlns="http://www.w3.org/2000/svg">
<path fill-rule="evenodd" clip-rule="evenodd" d="M4.33398 2.66667C4.14989 2.66667 4.00065 2.81591 4.00065 3V12.9931L7.79846 10.0956C7.91786 10.0045 8.08344 10.0045 8.20284 10.0956L12.0007 12.9931V3C12.0007 2.81591 11.8514 2.66667 11.6673 2.66667H4.33398ZM3.33398 3C3.33398 2.44772 3.7817 2 4.33398 2H11.6673C12.2196 2 12.6673 2.44772 12.6673 3V13.6667C12.6673 13.7934 12.5954 13.9092 12.4818 13.9654C12.3682 14.0216 12.2326 14.0086 12.1318 13.9317L8.00065 10.7799L3.8695 13.9317C3.76873 14.0086 3.63308 14.0216 3.51947 13.9654C3.40587 13.9092 3.33398 13.7934 3.33398 13.6667V3Z" fill="#0062FF"/>
</svg>
