<svg width="16" height="16" viewBox="0 0 16 16" fill="none" xmlns="http://www.w3.org/2000/svg">
<path fill-rule="evenodd" clip-rule="evenodd" d="M8.70524 2.32252C9.36872 1.68108 10.2574 1.32609 11.1799 1.33412C12.1024 1.34214 12.9848 1.71254 13.637 2.36542C14.2893 3.01829 14.6592 3.9014 14.6672 4.82453C14.6752 5.74766 14.3207 6.63706 13.6799 7.30118L13.6759 7.30535L11.7651 9.21796C11.4085 9.57504 10.9792 9.85125 10.5066 10.0277C10.0339 10.2042 9.52883 10.2769 9.02561 10.2408C8.52239 10.2048 8.03282 10.0608 7.59011 9.81867C7.14739 9.57656 6.76191 9.24198 6.45977 8.83766C6.34957 8.69019 6.37979 8.48131 6.52726 8.37111C6.67473 8.26091 6.88361 8.29113 6.9938 8.4386C7.23873 8.76636 7.5512 9.03754 7.90999 9.23376C8.26878 9.42998 8.66551 9.54665 9.07328 9.57588C9.48105 9.60512 9.89034 9.54622 10.2734 9.40319C10.6564 9.26016 11.0043 9.03634 11.2934 8.74687L13.2021 6.83625C13.7203 6.29813 14.007 5.57791 14.0005 4.83032C13.994 4.08178 13.6941 3.36581 13.1654 2.83659C12.6367 2.30738 11.9216 2.00726 11.1741 2.00076C10.4274 1.99426 9.70792 2.28129 9.17031 2.80019L8.07654 3.88867C7.94606 4.01853 7.735 4.01802 7.60514 3.88753C7.47528 3.75704 7.47579 3.54599 7.60628 3.41613L8.70524 2.32252Z" fill="#0062FF"/>
<path fill-rule="evenodd" clip-rule="evenodd" d="M5.49471 5.97355C5.96739 5.79705 6.47247 5.72437 6.97569 5.76045C7.47891 5.79652 7.96848 5.94051 8.4112 6.18262C8.85391 6.42474 9.2394 6.75931 9.54153 7.16363C9.65173 7.3111 9.62152 7.51998 9.47405 7.63018C9.32658 7.74038 9.1177 7.71017 9.0075 7.5627C8.76257 7.23493 8.45011 6.96375 8.09132 6.76754C7.73252 6.57132 7.33579 6.45464 6.92802 6.42541C6.52025 6.39618 6.11097 6.45507 5.72792 6.5981C5.34487 6.74113 4.99701 6.96496 4.70793 7.25442L2.79921 9.16504C2.28101 9.70316 1.99427 10.4234 2.00076 11.171C2.00726 11.9195 2.30721 12.6355 2.8359 13.1647C3.36458 13.6939 4.07969 13.994 4.82719 14.0005C5.57375 14.007 6.29309 13.7201 6.83066 13.2014L7.9177 12.1133C8.04781 11.9831 8.25886 11.983 8.3891 12.1131C8.51934 12.2432 8.51945 12.4542 8.38934 12.5845L7.29609 13.6788C6.63262 14.3202 5.7439 14.6752 4.82139 14.6672C3.89888 14.6592 3.0165 14.2888 2.36426 13.6359C1.71203 12.983 1.34213 12.0999 1.33412 11.1768C1.3261 10.2536 1.68062 9.36423 2.32141 8.70011L2.32543 8.69594L4.23621 6.78334C4.59283 6.42625 5.02206 6.15004 5.49471 5.97355Z" fill="#0062FF"/>
</svg>
