<svg width="40" height="40" viewBox="0 0 40 40" fill="none" xmlns="http://www.w3.org/2000/svg">
<path d="M8.46206 15.0552C8.91722 14.6 9.65518 14.6 10.1103 15.0552L24.9448 29.8897C25.4 30.3448 25.4 31.0828 24.9448 31.5379L24.1207 32.3621C23.6655 32.8172 22.9276 32.8172 22.4724 32.3621L7.63792 17.5276C7.18276 17.0724 7.18276 16.3345 7.63792 15.8793L8.46206 15.0552Z" fill="#0062FF"/>
<path d="M5.16551 18.3517C5.62067 17.8966 6.35863 17.8966 6.81378 18.3517L21.6483 33.1862C22.1034 33.6414 22.1034 34.3793 21.6483 34.8345L20.8241 35.6586C20.369 36.1138 19.631 36.1138 19.1759 35.6586L4.34137 20.8241C3.88621 20.369 3.88621 19.631 4.34137 19.1759L5.16551 18.3517Z" fill="#0062FF"/>
<path d="M10.9345 14.231C10.4793 13.7759 10.4793 13.0379 10.9345 12.5828L19.1759 4.34137C19.631 3.88621 20.369 3.88621 20.8241 4.34137L27.0052 10.5224C27.4603 10.9776 27.4603 11.7155 27.0052 12.1707L18.7638 20.4121C18.3086 20.8672 17.5707 20.8672 17.1155 20.4121L10.9345 14.231Z" fill="#0062FF"/>
<path d="M19.5879 22.8845C19.1328 22.4293 19.1328 21.6914 19.5879 21.2362L27.8293 12.9948C28.2845 12.5397 29.0224 12.5397 29.4776 12.9948L35.6586 19.1759C36.1138 19.631 36.1138 20.369 35.6586 20.8241L27.4172 29.0655C26.9621 29.5207 26.2241 29.5207 25.769 29.0655L19.5879 22.8845Z" fill="#0062FF"/>
</svg>
