<svg width="24" height="24" viewBox="0 0 24 24" fill="none" xmlns="http://www.w3.org/2000/svg">
<path fill-rule="evenodd" clip-rule="evenodd" d="M2 3.5C2 2.67157 2.67157 2 3.5 2H20.5C21.3284 2 22 2.67157 22 3.5V20.5C22 21.3284 21.3284 22 20.5 22H3.5C2.67157 22 2 21.3284 2 20.5V3.5ZM3.5 3C3.22386 3 3 3.22386 3 3.5V20.5C3 20.7761 3.22386 21 3.5 21H20.5C20.7761 21 21 20.7761 21 20.5V3.5C21 3.22386 20.7761 3 20.5 3H3.5Z" fill="#182234"/>
<path fill-rule="evenodd" clip-rule="evenodd" d="M8.30556 7.22217C7.70725 7.22217 7.22222 7.70719 7.22222 8.3055C7.22222 8.90381 7.70725 9.38883 8.30556 9.38883C8.90386 9.38883 9.38889 8.90381 9.38889 8.3055C9.38889 7.70719 8.90386 7.22217 8.30556 7.22217ZM6.22222 8.3055C6.22222 7.15491 7.15496 6.22217 8.30556 6.22217C9.45615 6.22217 10.3889 7.15491 10.3889 8.3055C10.3889 9.45609 9.45615 10.3888 8.30556 10.3888C7.15496 10.3888 6.22222 9.45609 6.22222 8.3055Z" fill="#182234"/>
<path fill-rule="evenodd" clip-rule="evenodd" d="M15.1616 10.2423C15.7474 9.65651 16.6971 9.65651 17.2829 10.2423L21.8536 14.813C22.0488 15.0082 22.0488 15.3248 21.8536 15.5201C21.6583 15.7153 21.3417 15.7153 21.1465 15.5201L16.5758 10.9494C16.3805 10.7541 16.0639 10.7541 15.8687 10.9494L4.96467 21.8534C4.76941 22.0487 4.45282 22.0487 4.25756 21.8534C4.0623 21.6581 4.0623 21.3416 4.25756 21.1463L15.1616 10.2423Z" fill="#182234"/>
</svg>
