<svg width="64" height="64" viewBox="0 0 64 64" fill="none" xmlns="http://www.w3.org/2000/svg">
<path fill-rule="evenodd" clip-rule="evenodd" d="M5.33301 9.33203C5.33301 7.12289 7.12387 5.33203 9.33301 5.33203H54.6663C56.8755 5.33203 58.6663 7.12289 58.6663 9.33203V54.6654C58.6663 56.8745 56.8755 58.6654 54.6663 58.6654H9.33301C7.12387 58.6654 5.33301 56.8745 5.33301 54.6654V9.33203ZM9.33301 7.9987C8.59663 7.9987 7.99967 8.59565 7.99967 9.33203V54.6654C7.99967 55.4017 8.59663 55.9987 9.33301 55.9987H54.6663C55.4027 55.9987 55.9997 55.4017 55.9997 54.6654V9.33203C55.9997 8.59565 55.4027 7.9987 54.6663 7.9987H9.33301Z" fill="#182234"/>
<path fill-rule="evenodd" clip-rule="evenodd" d="M22.1478 19.2578C20.5523 19.2578 19.2589 20.5512 19.2589 22.1467C19.2589 23.7422 20.5523 25.0356 22.1478 25.0356C23.7433 25.0356 25.0367 23.7422 25.0367 22.1467C25.0367 20.5512 23.7433 19.2578 22.1478 19.2578ZM16.5923 22.1467C16.5923 19.0785 19.0796 16.5911 22.1478 16.5911C25.2161 16.5911 27.7034 19.0785 27.7034 22.1467C27.7034 25.2149 25.2161 27.7023 22.1478 27.7023C19.0796 27.7023 16.5923 25.2149 16.5923 22.1467Z" fill="#182234"/>
<path fill-rule="evenodd" clip-rule="evenodd" d="M40.4305 27.3115C41.9926 25.7494 44.5253 25.7494 46.0874 27.3115L58.2758 39.4999C58.7965 40.0206 58.7965 40.8649 58.2758 41.3856C57.7551 41.9063 56.9109 41.9063 56.3902 41.3856L44.2018 29.1971C43.6811 28.6764 42.8368 28.6764 42.3161 29.1971L13.2388 58.2745C12.7181 58.7952 11.8739 58.7952 11.3532 58.2745C10.8325 57.7538 10.8325 56.9095 11.3532 56.3888L40.4305 27.3115Z" fill="#182234"/>
</svg>
