<svg width="34" height="34" fill="none" xmlns="http://www.w3.org/2000/svg"><path d="M27.21 30.194H6.415a1.011 1.011 0 01-1.012-1.01V15.387a1.011 1.011 0 112.023 0v12.784h18.773V15.388a1.011 1.011 0 112.022 0v13.795a1.01 1.01 0 01-1.01 1.011z" fill="#fff"/><path d="M30.8 14.686c-.195 0-.393-.056-.568-.175l-13.42-9.12-13.42 9.12a1.01 1.01 0 11-1.137-1.672l13.989-9.508a1.011 1.011 0 011.137 0L31.37 12.84a1.011 1.011 0 01-.57 1.847zm-3.59-6.709a1.011 1.011 0 01-1.01-1.011V5.344h-2.57a1.011 1.011 0 110-2.023h3.581c.559 0 1.011.453 1.011 1.012v2.633a1.01 1.01 0 01-1.01 1.011zM21.191 26.73a1.011 1.011 0 01-1.011-1.01v-8.1h-6.736v8.1a1.011 1.011 0 11-2.022 0v-9.112a1.01 1.01 0 011.011-1.011h8.758a1.01 1.01 0 011.011 1.01v9.112c0 .559-.452 1.012-1.011 1.012z" fill="#fff"/></svg>