<svg width="34" height="34" fill="none" xmlns="http://www.w3.org/2000/svg"><path d="M27.21 30.194H6.415a1.011 1.011 0 01-1.012-1.01V15.387a1.011 1.011 0 112.023 0v12.784h18.773V15.388a1.011 1.011 0 112.022 0v13.795a1.01 1.01 0 01-1.01 1.011z" fill="#fff"/><path d="M30.8 14.686c-.195 0-.393-.057-.568-.175L16.812 5.39l-13.42 9.12a1.01 1.01 0 11-1.137-1.671L16.244 3.33a1.011 1.011 0 011.137 0l13.989 9.508a1.011 1.011 0 01-.57 1.847zm-3.59-6.709a1.011 1.011 0 01-1.011-1.01V5.343h-2.57a1.011 1.011 0 110-2.022h3.581a1.01 1.01 0 011.011 1.011v2.633a1.01 1.01 0 01-1.01 1.011zM21.191 26.73a1.011 1.011 0 01-1.011-1.011v-8.1h-6.736v8.1a1.011 1.011 0 11-2.022 0v-9.112c0-.558.453-1.01 1.011-1.01h8.758a1.01 1.01 0 011.011 1.01v9.112a1.01 1.01 0 01-1.011 1.011z" fill="#fff"/></svg>