<svg width="22" height="18" fill="none" xmlns="http://www.w3.org/2000/svg"><path d="M2.25.5h13.5a1.75 1.75 0 011.75 1.75v9A1.75 1.75 0 0115.75 13H7.11c-.657 0-1.292.235-1.79.663L.912 17.44a.252.252 0 01-.162.06.273.273 0 01-.108-.022.254.254 0 01-.143-.228v-15A1.75 1.75 0 012.25.5zm14.751 1.748A1.254 1.254 0 0015.752.999H2.248A1.254 1.254 0 001 2.248v14.46L1.824 16l3.17-2.717a3.258 3.258 0 012.116-.782h8.642a1.254 1.254 0 001.249-1.249V2.248z" fill="#fff" stroke="#fff"/><path d="M12.778 4.911a.254.254 0 01.246.152.25.25 0 01-.246.35l-.014-.002h-7.53l-.014.001a.253.253 0 01-.188-.067.251.251 0 01.188-.434l.014.001h7.544zm0 3.001a.253.253 0 01.246.151.25.25 0 01-.246.35H5.22a.252.252 0 01-.188-.067.251.251 0 01.188-.434l.014.001h7.544z" fill="#fff" stroke="#fff"/><path d="M10.5 11L22 2.313V18H12l-1.5-7z" fill="#04254E"/><path d="M11.325 12.5a.253.253 0 01.246.151.25.25 0 01-.246.35L11.311 13H7.78l-.014.001a.253.253 0 01-.188-.067.251.251 0 01-.058-.283.25.25 0 01.145-.136.253.253 0 01.1-.015l.015.001h3.53l.014-.001zM17.5 6.325a.253.253 0 01-.251.267.251.251 0 01-.25-.267L17 6.311V2.78l-.001-.014a.253.253 0 01.067-.188.251.251 0 01.283-.058.25.25 0 01.136.145.253.253 0 01.015.1l-.001.015v3.53l.001.014z" fill="#fff" stroke="#fff"/><path d="M19.73 9.75a.154.154 0 00-.154.132 6.547 6.547 0 01-.357 1.427v.002a.151.151 0 00.034.16l.571.571a.75.75 0 01.122.901 7.985 7.985 0 01-2.996 2.992.75.75 0 01-.9-.123l-.572-.57a.155.155 0 00-.077-.04.158.158 0 00-.088.005l-.002.001c-.46.172-.94.292-1.427.357h-.001a.153.153 0 00-.133.155v1.376a.154.154 0 00.17.153 8.216 8.216 0 003.564-1.268l.006-.004.368-.248a8.065 8.065 0 002.117-2.232l.002-.005.252-.412c.552-.972.9-2.049 1.02-3.163a.154.154 0 00-.007-.063.154.154 0 00-.084-.09l-.063-.014H19.73z" fill="#fff" stroke="#fff" stroke-width="1.5" stroke-linecap="round" stroke-linejoin="round"/></svg>